<svg width="63" height="61" viewBox="0 0 63 61" fill="none" xmlns="http://www.w3.org/2000/svg">
<path d="M48.6819 1.62128C45.7158 1.27744 42.7145 1.82668 40.0624 3.19867C37.4103 4.57066 35.228 6.70283 33.795 9.32245C32.3619 11.9421 31.7433 14.9297 32.0184 17.903C32.2934 20.8763 33.4496 23.6999 35.3389 26.0121L33.4609 32.0402L38.9708 29.2253C40.877 30.4233 43.0285 31.1769 45.2656 31.4301C47.5028 31.6833 49.7682 31.4296 51.8939 30.6879C54.0197 29.9463 55.9513 28.7356 57.5453 27.1457C59.1394 25.5558 60.3552 23.6276 61.1024 21.5038C61.8497 19.3801 62.1093 17.1152 61.8619 14.8774C61.6146 12.6396 60.8667 10.4862 59.6737 8.57684C58.4807 6.66749 56.8732 5.05125 54.9704 3.84784C53.0676 2.64443 50.9183 1.88472 48.6819 1.62518V1.62128Z" stroke="#2A63FD" stroke-width="2" stroke-miterlimit="10"/>
<path d="M12.3958 7.44866C14.7941 7.16921 17.2212 7.6123 19.3661 8.72113C21.511 9.82995 23.2759 11.554 24.4346 13.6723C25.5934 15.7906 26.0932 18.2068 25.87 20.611C25.6467 23.0152 24.7107 25.2979 23.1818 27.1667L24.6998 32.0397L20.2458 29.7639C18.7047 30.7311 16.9657 31.3391 15.1576 31.5429C13.3496 31.7467 11.5189 31.541 9.8011 30.9411C8.08336 30.3412 6.52263 29.3625 5.23461 28.0773C3.94658 26.7922 2.96429 25.2337 2.36049 23.5173C1.7567 21.8009 1.54689 19.9705 1.74663 18.162C1.94637 16.3535 2.55055 14.6133 3.51436 13.07C4.47818 11.5267 5.77691 10.2201 7.31435 9.247C8.85179 8.27394 10.5885 7.65927 12.3958 7.44866Z" stroke="#0A2741" stroke-width="2" stroke-miterlimit="10"/>
<path d="M16.418 47.8152C19.1959 47.5853 21.2614 45.147 21.0315 42.3691C20.8016 39.5913 18.3634 37.5257 15.5855 37.7556C12.8076 37.9855 10.742 40.4238 10.9719 43.2017C11.2018 45.9796 13.6401 48.0451 16.418 47.8152Z" stroke="#2A63FD" stroke-width="2" stroke-miterlimit="10"/>
<path d="M25.922 56.9802C25.923 57.8624 25.8046 58.7408 25.57 59.5913H6.43305C6.19907 58.7407 6.08099 57.8624 6.08204 56.9802C6.0807 55.2984 6.50751 53.6439 7.32224 52.1726C8.13698 50.7013 9.31283 49.4616 10.7391 48.5703C11.3972 49.3176 12.2069 49.9161 13.1144 50.3262C14.0219 50.7362 15.0062 50.9482 16.0021 50.9482C16.9979 50.9482 17.9822 50.7362 18.8897 50.3262C19.7972 49.9161 20.6069 49.3176 21.2651 48.5703C22.6913 49.4616 23.8671 50.7013 24.6819 52.1726C25.4966 53.6439 25.9234 55.2984 25.922 56.9802Z" stroke="#2A63FD" stroke-width="2" stroke-miterlimit="10"/>
<path d="M41.9673 47.7666C44.7187 47.3201 46.5872 44.7278 46.1407 41.9764C45.6943 39.225 43.1019 37.3565 40.3505 37.8029C37.5991 38.2494 35.7306 40.8418 36.1771 43.5932C36.6235 46.3446 39.2159 48.2131 41.9673 47.7666Z" stroke="#0A2741" stroke-width="2" stroke-miterlimit="10"/>
<path d="M51.0788 56.9802C51.0799 57.8624 50.9618 58.7407 50.7278 59.5913H31.5898C31.3558 58.7407 31.2377 57.8624 31.2388 56.9802C31.2374 55.2984 31.6642 53.6439 32.4789 52.1726C33.2937 50.7013 34.4695 49.4616 35.8958 48.5703C36.554 49.3175 37.3638 49.916 38.2712 50.3259C39.1787 50.7359 40.163 50.9478 41.1588 50.9478C42.1545 50.9478 43.1389 50.7359 44.0463 50.3259C44.9538 49.916 45.7635 49.3175 46.4218 48.5703C47.848 49.4616 49.0238 50.7013 49.8386 52.1726C50.6533 53.6439 51.0801 55.2984 51.0788 56.9802Z" stroke="#0A2741" stroke-width="2" stroke-miterlimit="10"/>
</svg>
