<svg width="68" height="56" viewBox="0 0 68 56" fill="none" xmlns="http://www.w3.org/2000/svg">
<path d="M48.3452 11.1959C44.0334 5.93452 37.8693 2.52559 31.1208 1.67017C24.3724 0.814751 17.5526 2.57797 12.0645 6.59717C6.57629 10.6164 2.83695 16.5859 1.61572 23.2778C0.394487 29.9698 1.7843 36.8753 5.49902 42.574C9.21374 48.2726 14.971 52.3311 21.5867 53.9146C28.2023 55.498 35.1731 54.4859 41.0654 51.0867C46.9577 47.6874 51.3232 42.1595 53.2642 35.6398C55.2051 29.1201 54.5739 22.1045 51.5002 16.036" stroke="#0A2741" stroke-width="2" stroke-miterlimit="10"/>
<path d="M45.1339 20.1757C47.1314 24.5783 47.3922 29.573 45.8638 34.1596C44.3355 38.7462 41.1308 42.5861 36.8917 44.9104C32.6525 47.2348 27.6917 47.8719 23.0028 46.6944C18.3138 45.5168 14.2427 42.6114 11.6048 38.56C8.96689 34.5085 7.9569 29.6101 8.77693 24.8456C9.59696 20.0811 12.1866 15.8023 16.0272 12.8659C19.8678 9.92945 24.676 8.55223 29.4888 9.01003C34.3017 9.46783 38.7639 11.7269 41.982 15.3347" stroke="#0A2741" stroke-width="2" stroke-miterlimit="10"/>
<path d="M38.7345 24.3413C39.6477 27.0341 39.5466 29.9677 38.4501 32.5913C37.3535 35.2148 35.3368 37.3478 32.7789 38.5898C30.221 39.8318 27.2978 40.0972 24.558 39.3364C21.8181 38.5756 19.4503 36.8408 17.899 34.4577C16.3477 32.0747 15.7195 29.2073 16.1327 26.394C16.5458 23.5807 17.972 21.0149 20.1429 19.1785C22.3139 17.3421 25.0806 16.3614 27.9234 16.4205C30.7663 16.4795 33.4898 17.5744 35.5826 19.4993" stroke="#0A2741" stroke-width="2" stroke-miterlimit="10"/>
<path d="M41.9821 15.3354C38.7683 11.734 34.3127 9.4795 29.5075 9.02326C24.7023 8.56702 19.902 9.94264 16.0678 12.8748C12.2336 15.807 9.64846 20.0793 8.83001 24.8363C8.01156 29.5932 9.02026 34.4838 11.654 38.5288C14.2877 42.5738 18.3522 45.4747 23.0336 46.6507C27.715 47.8267 32.6677 47.1908 36.9003 44.8707C41.133 42.5505 44.333 38.7172 45.8598 34.1381C47.3865 29.5591 47.1273 24.5724 45.134 20.1763" stroke="#0A2741" stroke-width="2" stroke-miterlimit="10"/>
<path d="M35.5824 19.4989C33.4912 17.5762 30.7698 16.4829 27.9296 16.4244C25.0894 16.3658 22.3256 17.346 20.1569 19.1809C17.9882 21.0159 16.5637 23.5793 16.1511 26.3901C15.7384 29.2008 16.3659 32.0654 17.9157 34.4462C19.4655 36.827 21.8313 38.5603 24.5685 39.3206C27.3057 40.0808 30.2262 39.8158 32.7819 38.5752C35.3376 37.3347 37.3527 35.2041 38.4487 32.5832C39.5447 29.9623 39.6461 27.0314 38.7343 24.3409" stroke="#2A63FD" stroke-width="2" stroke-miterlimit="10"/>
<path d="M32.1831 28.6023C32.0754 29.5272 31.685 30.3964 31.0652 31.0913C30.4454 31.7862 29.6264 32.273 28.7198 32.4854C27.8132 32.6977 26.8633 32.6253 25.9993 32.278C25.1354 31.9306 24.3994 31.3253 23.8921 30.5445C23.3848 29.7636 23.1309 28.8454 23.1646 27.9148C23.1983 26.9843 23.5181 26.0867 24.0806 25.3446C24.6431 24.6026 25.4208 24.0521 26.3077 23.7682C27.1945 23.4843 28.1473 23.4809 29.0362 23.7583" stroke="#2A63FD" stroke-width="2" stroke-miterlimit="10"/>
<path d="M27.6689 28.0825L55.6479 9.87146M55.6479 9.87146V6.02747L62.9661 1.39844V4.95251L66.417 6.1405L58.894 11.0615L55.6479 9.87146Z" stroke="#0A2741" stroke-width="2" stroke-linecap="round" stroke-linejoin="round"/>
</svg>
