<svg width="62" height="67" viewBox="0 0 62 67" fill="none" xmlns="http://www.w3.org/2000/svg">
<path d="M48.2633 17.635C49.0635 17.6399 49.8305 17.9555 50.4024 18.5153C50.9743 19.075 51.3063 19.8351 51.3283 20.635C51.3283 21.898 49.7963 23.7 49.7963 23.7C48.8963 25.356 50.8103 25.356 50.8103 25.356H60.3973V4.51498C60.3973 3.58275 60.027 2.6887 59.3678 2.02951C58.7086 1.37032 57.8145 1 56.8823 1H36.1303V10.659C36.1303 10.659 36.1663 11.785 35.1533 11.643C34.9545 11.6117 34.7667 11.5309 34.6073 11.408C33.9073 10.89 30.9653 9.10098 29.3253 11.363C28.9329 11.907 28.7225 12.5612 28.7241 13.2319C28.7257 13.9027 28.9393 14.5558 29.3343 15.098C30.9763 17.318 33.9073 15.466 34.6073 14.948C34.767 14.8258 34.9546 14.7453 35.1533 14.714C36.1663 14.572 36.1303 15.698 36.1303 15.698V25.358H45.7173C45.7173 25.358 47.6323 25.358 46.7313 23.702C46.7313 23.702 45.1993 21.902 45.1993 20.637C45.2033 20.2387 45.2858 19.8451 45.442 19.4786C45.5982 19.1122 45.825 18.7801 46.1095 18.5014C46.394 18.2226 46.7307 18.0026 47.1002 17.8539C47.4698 17.7053 47.865 17.6309 48.2633 17.635Z" stroke="#2A63FD" stroke-width="2" stroke-miterlimit="10"/>
<path d="M25.2671 65.4781V65.4981H5.26707C4.13459 65.4981 3.04851 65.0482 2.24773 64.2474C1.44695 63.4467 0.99707 62.3606 0.99707 61.2281V41.1391H10.5831C10.5831 41.1391 12.4981 41.1391 11.5971 42.7961C11.5971 42.7961 10.0641 44.5961 10.0641 45.8621C10.0786 46.6653 10.4078 47.4306 10.9809 47.9935C11.5541 48.5564 12.3253 48.8717 13.1286 48.8717C13.9319 48.8717 14.7031 48.5564 15.2762 47.9935C15.8493 47.4306 16.1786 46.6653 16.1931 45.8621C16.1931 44.5971 14.6631 42.7961 14.6631 42.7961C13.7631 41.1391 15.6771 41.1391 15.6771 41.1391L25.2621 41.1211V50.7801C25.2621 50.7801 25.2981 51.9061 24.2851 51.7641C24.0862 51.7328 23.8985 51.652 23.7391 51.5291C23.0391 51.0111 20.0971 49.2221 18.4571 51.4841C18.0647 52.0282 17.8543 52.6823 17.8559 53.3531C17.8575 54.0238 18.0711 54.677 18.4661 55.2191C20.1081 57.4391 23.0401 55.5861 23.7401 55.0691C23.8998 54.9469 24.0874 54.8665 24.2861 54.8351C25.2991 54.6931 25.2631 55.8191 25.2631 55.8191L25.2671 65.4781Z" stroke="#0A2741" stroke-width="2" stroke-miterlimit="10"/>
<path d="M1 41.1224V20.8364C1 19.7813 1.41908 18.7694 2.16507 18.0232C2.91106 17.277 3.92288 16.8577 4.978 16.8574H25.266V26.4434C25.266 26.4434 25.266 28.3604 23.616 27.4574C23.616 27.4574 21.822 25.9274 20.562 25.9274C19.7633 25.9498 19.0047 26.2818 18.4465 26.8535C17.8883 27.4251 17.5743 28.1915 17.571 28.9904C17.5611 29.7936 17.8707 30.5679 18.4316 31.1428C18.9925 31.7178 19.7588 32.0464 20.562 32.0564C21.822 32.0564 23.616 30.5234 23.616 30.5234C25.266 29.6234 25.266 31.5384 25.266 31.5384V41.1244" stroke="#0A2741" stroke-width="2" stroke-miterlimit="10"/>
<path d="M25.2671 41.0851H25.2751L34.8751 41.1221C34.8751 41.1221 36.0021 41.1561 35.8601 40.1441C35.8284 39.9459 35.748 39.7586 35.6261 39.5991C35.1081 38.8991 33.2561 35.9661 35.4751 34.3261C36.0189 33.9314 36.6736 33.7188 37.3456 33.7188C38.0176 33.7188 38.6723 33.9314 39.2161 34.3261C41.4671 35.9671 39.6831 38.9041 39.1651 39.6041C39.0417 39.7629 38.9605 39.9504 38.9291 40.1491C38.7881 41.1611 39.9141 41.1271 39.9141 41.1271H49.5381V61.7571C49.5381 62.7519 49.1429 63.706 48.4394 64.4095C47.736 65.1129 46.7819 65.5081 45.7871 65.5081H25.2671" stroke="#0A2741" stroke-width="2" stroke-miterlimit="10"/>
</svg>
