<svg width="78" height="66" viewBox="0 0 78 66" fill="none" xmlns="http://www.w3.org/2000/svg">
<path d="M6.04407 46.9741L2.05798 44.4651L3.46899 40.8651L8.11499 41.9491C8.77563 41.0541 9.56485 40.2615 10.457 39.597L9.41199 35.0031L12.9561 33.4531L15.475 37.5051C16.5753 37.3404 17.694 37.338 18.795 37.498L21.3041 33.5121L24.9041 34.9221L23.8201 39.5681C24.715 40.2288 25.5075 41.0179 26.172 41.91L30.766 40.8651L32.316 44.4091L28.264 46.9281C28.429 48.0285 28.4313 49.147 28.271 50.248L32.2571 52.7571L30.847 56.3571L26.2001 55.2731C25.5396 56.1682 24.7504 56.9609 23.858 57.6251L24.9031 62.2191L21.359 63.769L18.84 59.718C17.7396 59.8829 16.6211 59.8853 15.52 59.7251L13.011 63.712L9.41101 62.301L10.495 57.655C9.59999 56.9944 8.80751 56.2053 8.14307 55.3131L3.55005 56.358L2 52.8141L6.05103 50.295C5.88631 49.1947 5.88399 48.0752 6.04407 46.9741Z" stroke="#2A63FD" stroke-width="2" stroke-miterlimit="10"/>
<path d="M11.0229 48.6096C11.0228 47.396 11.3824 46.2095 12.0565 45.2003C12.7306 44.1911 13.6889 43.4045 14.8101 42.94C15.9312 42.4754 17.165 42.3538 18.3553 42.5905C19.5457 42.8271 20.6391 43.4113 21.4973 44.2694C22.3555 45.1275 22.9402 46.2208 23.177 47.4111C23.4138 48.6014 23.2923 49.8353 22.8279 50.9566C22.3635 52.0778 21.5771 53.0362 20.568 53.7105C19.5589 54.3847 18.3726 54.7446 17.1589 54.7446C15.5317 54.7446 13.9711 54.0983 12.8204 52.9478C11.6697 51.7973 11.0232 50.2368 11.0229 48.6096Z" stroke="#2A63FD" stroke-width="2" stroke-miterlimit="10"/>
<path d="M13.1123 12.1047L10.1982 10.2708L11.2292 7.63782L14.6293 8.43079C15.1122 7.77662 15.6891 7.19737 16.3413 6.71179L15.5773 3.35376L18.1682 2.2207L20.0093 5.18274C20.8137 5.06226 21.6314 5.06057 22.4363 5.17773L24.2703 2.26379L26.9032 3.2948L26.1102 6.6947C26.7645 7.17747 27.3438 7.75442 27.8292 8.40674L31.1873 7.6427L32.3203 10.2338L29.3583 12.0747C29.4198 12.4822 29.4505 12.8937 29.4502 13.3058C29.4506 13.7073 29.4219 14.1083 29.3643 14.5057L32.2782 16.3397L31.2473 18.9728L27.8473 18.1808C27.3644 18.835 26.7874 19.4142 26.1353 19.8998L26.8993 23.2578L24.3082 24.3907L22.4673 21.4287C21.6629 21.5491 20.8452 21.5508 20.0403 21.4337L18.2063 24.3478L15.5732 23.3168L16.3652 19.9167C15.7112 19.4337 15.1319 18.8568 14.6462 18.2047L11.2882 18.9688L10.1553 16.3778L13.1173 14.5367C12.9966 13.7324 12.9949 12.9146 13.1123 12.1097V12.1047Z" stroke="#0A2741" stroke-width="2" stroke-miterlimit="10"/>
<path d="M21.2361 16.3746C22.9338 16.3746 24.3101 14.9983 24.3101 13.3006C24.3101 11.6028 22.9338 10.2266 21.2361 10.2266C19.5384 10.2266 18.1621 11.6028 18.1621 13.3006C18.1621 14.9983 19.5384 16.3746 21.2361 16.3746Z" stroke="#0A2741" stroke-width="2" stroke-miterlimit="10"/>
<path d="M39.765 37.105L33.5649 35.5549L33.865 30.3159L40.312 29.7499C40.7854 28.3172 41.4677 26.9622 42.337 25.7289L39.049 20.2489L42.963 16.7489L47.922 20.907C49.2709 20.2297 50.7119 19.7539 52.199 19.4949L53.748 13.2949L58.9869 13.595L59.554 20.043C60.9867 20.5161 62.3417 21.1984 63.575 22.0679L69.0551 18.7799L72.5551 22.694L68.397 27.653C69.0746 29.0018 69.5503 30.4428 69.809 31.9299L76.009 33.48L75.709 38.72L69.262 39.2859C68.7885 40.7186 68.1061 42.0735 67.2369 43.3069L70.525 48.787L66.611 52.287L61.652 48.1289C60.3031 48.8065 58.8621 49.2822 57.375 49.5409L55.825 55.741L50.5861 55.4409L50.02 48.9929C48.5873 48.5196 47.2324 47.8372 45.999 46.9679L40.519 50.256L37.019 46.3419L41.177 41.3829C40.4994 40.0341 40.0236 38.5921 39.765 37.105Z" stroke="#0A2741" stroke-width="2" stroke-miterlimit="10"/>
<path d="M56.3718 42.6864C60.8839 41.8089 63.8303 37.4397 62.9527 32.9275C62.0752 28.4154 57.706 25.469 53.1938 26.3466C48.6817 27.2241 45.7353 31.5933 46.6129 36.1055C47.4904 40.6176 51.8596 43.564 56.3718 42.6864Z" stroke="#0A2741" stroke-width="2" stroke-miterlimit="10"/>
</svg>
