<svg width="622" height="620" viewBox="0 0 622 620" fill="none" xmlns="http://www.w3.org/2000/svg">
<g opacity="0.298">
<path d="M488.619 283.504C487.002 281.889 483.526 281.441 472.567 281.441C461.092 281.441 458.115 281.041 455.999 279.203C452.76 276.39 435.112 234.381 435.112 229.481C435.112 226.731 437.568 223.292 445.427 215.04C446.077 214.358 446.71 213.683 447.327 213.016C447.427 212.916 447.518 212.824 447.621 212.716C451.521 208.756 454.728 204.877 455.458 203.306C455.595 203.112 455.691 202.892 455.74 202.659C455.74 199.871 420.67 165.397 417.834 165.397C417.812 165.397 417.779 165.407 417.754 165.409C417.729 165.411 417.72 165.397 417.708 165.397C416.23 165.397 410.617 169.797 404.557 175.712C397.157 182.937 393.122 185.963 390.831 186.021C386.202 185.901 343.311 168.279 341.29 165.655C340.231 164.28 339.702 158.758 339.702 149.087C339.702 139.555 339.412 135.57 338.408 133.587C338.361 133.42 338.3 133.258 338.225 133.102C336.952 130.739 335.325 130.588 311.212 130.588H310.045C285.934 130.588 284.305 130.739 283.033 133.102C282.957 133.258 282.895 133.42 282.849 133.587C281.849 135.573 281.555 139.559 281.555 149.087C281.555 158.757 281.026 164.28 279.967 165.655C277.947 168.279 235.054 185.901 230.426 186.021C228.135 185.963 224.106 182.937 216.7 175.712C210.637 169.804 205.023 165.399 203.546 165.399C203.534 165.399 203.512 165.411 203.5 165.411C203.488 165.411 203.443 165.399 203.42 165.399C200.583 165.399 165.515 199.873 165.515 202.661C165.563 202.894 165.659 203.114 165.797 203.308C166.527 204.878 169.737 208.758 173.634 212.718C173.734 212.818 173.827 212.913 173.928 213.018C174.545 213.685 175.179 214.359 175.828 215.042C183.686 223.294 186.143 226.732 186.143 229.483C186.143 234.383 168.495 276.392 165.256 279.205C163.14 281.041 160.163 281.443 148.688 281.443C137.729 281.443 134.253 281.89 132.636 283.506C129.671 286.472 129.671 333.145 132.636 336.106C134.252 337.722 137.729 338.169 148.688 338.169C160.163 338.169 163.14 338.569 165.256 340.407C168.496 343.22 186.143 385.23 186.143 390.128C186.143 392.879 183.687 396.318 175.828 404.568C175.143 405.286 174.473 406 173.828 406.702L173.767 406.761C169.446 411.012 165.967 415.229 165.673 416.525C165.594 416.654 165.541 416.797 165.517 416.947C165.517 419.735 200.586 454.207 203.422 454.207C203.445 454.207 203.476 454.197 203.501 454.194C203.526 454.191 203.538 454.208 203.551 454.208C205.029 454.208 210.642 449.808 216.702 443.893C224.114 436.662 228.142 433.636 230.435 433.583C235.1 433.72 277.948 451.326 279.967 453.948C281.028 455.324 281.558 460.847 281.555 470.517C281.555 480.065 281.848 484.047 282.855 486.029C282.902 486.192 282.963 486.352 283.037 486.505C284.31 488.868 285.937 489.019 310.049 489.019H311.211C335.322 489.019 336.95 488.868 338.223 486.505C338.298 486.352 338.359 486.193 338.405 486.029C339.413 484.047 339.705 480.063 339.705 470.517C339.705 460.847 340.234 455.324 341.293 453.948C343.313 451.325 386.162 433.72 390.827 433.583C393.118 433.636 397.147 436.662 404.558 443.893C410.618 449.806 416.232 454.208 417.709 454.208C417.722 454.208 417.746 454.195 417.759 454.194C417.772 454.193 417.816 454.207 417.838 454.207C420.675 454.207 455.744 419.734 455.744 416.947C455.72 416.797 455.667 416.654 455.588 416.525C455.298 415.225 451.814 411.012 447.494 406.761L447.433 406.702C446.783 406.002 446.114 405.286 445.433 404.568C437.575 396.318 435.118 392.879 435.118 390.128C435.118 385.228 452.765 343.221 456.005 340.407C458.121 338.572 461.098 338.169 472.573 338.169C483.532 338.169 487.01 337.722 488.625 336.106C491.584 333.143 491.584 286.47 488.619 283.504Z" stroke="#FF7F00" stroke-miterlimit="10"/>
<path d="M444.371 344.733C443.713 343.106 441.389 341.747 433.643 338.458C425.532 335.014 423.548 333.836 422.603 331.904C421.158 328.943 421.289 293.953 422.76 290.487C423.586 288.543 426.354 286.85 434.385 283.376C435.049 283.089 435.7 282.802 436.338 282.515C436.438 282.473 436.53 282.437 436.635 282.394C440.578 280.764 444.012 278.985 444.999 278.094C445.155 277.997 445.29 277.869 445.394 277.718C446.231 275.747 431.786 240.853 429.781 240.002C429.765 239.995 429.738 239.993 429.721 239.986C429.704 239.98 429.701 239.968 429.692 239.964C428.647 239.521 423.357 240.948 417.3 243.309C409.897 246.195 406.14 247.123 404.503 246.478C401.266 245.004 376.237 219.675 375.595 217.213C375.259 215.924 376.542 211.861 379.444 205.025C382.305 198.287 383.295 195.382 383.181 193.676C383.198 193.545 383.203 193.411 383.197 193.279C383.002 191.231 381.897 190.636 364.852 183.399L364.024 183.047C346.98 175.812 345.783 175.43 344.175 176.719C344.077 176.807 343.987 176.903 343.907 177.007C342.602 178.11 341.199 180.84 338.338 187.578C335.436 194.414 333.405 198.159 332.244 198.813C330.028 200.062 294.42 199.647 291.111 198.343C289.506 197.609 287.567 194.265 284.499 186.936C281.99 180.938 279.343 176.141 278.298 175.697C278.29 175.694 278.271 175.695 278.262 175.691C278.253 175.688 278.225 175.666 278.209 175.659C276.204 174.808 241.069 188.654 240.232 190.625C240.195 190.805 240.197 190.99 240.236 191.17C240.281 192.499 241.386 196.205 242.952 200.173C242.993 200.277 243.03 200.368 243.071 200.472C243.308 201.128 243.554 201.795 243.808 202.474C246.888 210.665 247.591 213.833 246.766 215.777C245.296 219.24 220.215 243.636 217.08 244.657C215.033 245.319 212.808 244.711 204.697 241.267C196.949 237.978 194.359 237.251 192.731 237.908C189.745 239.114 175.738 272.108 176.945 275.093C177.602 276.72 179.926 278.08 187.672 281.368C195.784 284.812 197.767 285.991 198.712 287.922C200.158 290.883 200.026 325.873 198.555 329.338C197.73 331.283 194.962 332.976 186.93 336.45C186.231 336.752 185.542 337.056 184.873 337.357L184.812 337.381C180.482 339.09 176.754 341.025 176.16 341.854C176.065 341.921 175.984 342.007 175.923 342.105C175.086 344.076 189.53 378.97 191.535 379.821C191.551 379.828 191.576 379.83 191.594 379.835C191.611 379.84 191.616 379.857 191.625 379.861C192.67 380.304 197.959 378.878 204.017 376.516C211.427 373.629 215.183 372.699 216.819 373.349C220.077 374.841 245.08 400.15 245.721 402.61C246.058 403.901 244.775 407.964 241.871 414.799C239.006 421.548 238.018 424.451 238.137 426.155C238.121 426.285 238.116 426.416 238.123 426.546C238.314 428.599 239.42 429.195 256.463 436.43L257.284 436.779C274.327 444.014 275.524 444.396 277.133 443.107C277.232 443.022 277.323 442.928 277.405 442.826C278.712 441.728 280.116 439 282.981 432.252C285.883 425.416 287.915 421.671 289.076 421.016C291.291 419.768 326.864 420.182 330.202 421.485C331.806 422.21 333.746 425.558 336.815 432.893C339.324 438.891 341.971 443.688 343.016 444.132C343.025 444.136 343.046 444.134 343.056 444.137C343.066 444.14 343.093 444.163 343.107 444.169C345.112 445.021 380.248 431.177 381.085 429.205C381.113 429.092 381.119 428.974 381.102 428.859C381.285 427.856 380.085 423.829 378.31 419.528L378.284 419.467C378.034 418.776 377.777 418.071 377.508 417.357C374.429 409.167 373.725 405.999 374.55 404.054C376.02 400.592 401.1 376.194 404.236 375.175C406.282 374.514 408.508 375.121 416.619 378.565C424.367 381.854 426.958 382.581 428.585 381.924C431.57 380.713 445.577 347.719 444.371 344.733Z" stroke="#FF7F00" stroke-width="1.00056" stroke-miterlimit="10"/>
<path d="M413.715 294.572C412.779 293.636 410.765 293.377 404.415 293.377C397.769 293.377 396.045 293.144 394.815 292.077C392.939 290.448 382.715 266.117 382.715 263.277C382.715 261.684 384.138 259.693 388.689 254.913C389.066 254.518 389.432 254.127 389.789 253.741L389.959 253.569C391.68 251.936 393.203 250.107 394.498 248.119C394.578 248.007 394.634 247.879 394.662 247.744C394.662 246.129 374.35 226.163 372.707 226.163C372.694 226.163 372.675 226.169 372.661 226.17C372.647 226.171 372.642 226.163 372.634 226.163C371.778 226.163 368.527 228.713 365.017 232.137C360.728 236.322 358.394 238.075 357.067 238.108C354.386 238.039 329.544 227.832 328.374 226.308C327.761 225.512 327.454 222.312 327.454 216.708C327.454 211.187 327.286 208.879 326.704 207.729C326.677 207.633 326.641 207.539 326.598 207.448C325.861 206.079 324.918 205.992 310.953 205.992H310.277C296.313 205.992 295.369 206.079 294.632 207.448C294.588 207.538 294.552 207.632 294.525 207.729C293.944 208.879 293.775 211.188 293.775 216.708C293.775 222.308 293.468 225.508 292.855 226.308C291.685 227.828 266.842 238.034 264.162 238.108C262.835 238.074 260.501 236.322 256.212 232.137C252.702 228.713 249.451 226.163 248.595 226.163C248.588 226.163 248.576 226.17 248.568 226.17C248.56 226.17 248.535 226.163 248.522 226.163C246.879 226.163 226.568 246.13 226.568 247.744C226.596 247.879 226.652 248.007 226.732 248.119C228.027 250.107 229.55 251.936 231.271 253.569L231.441 253.741C231.799 254.127 232.166 254.518 232.541 254.913C237.093 259.692 238.515 261.684 238.515 263.277C238.515 266.115 228.293 290.446 226.415 292.077C225.19 293.14 223.465 293.377 216.815 293.377C210.468 293.377 208.454 293.636 207.515 294.572C205.797 296.29 205.797 323.322 207.515 325.04C208.451 325.976 210.465 326.235 216.815 326.235C223.461 326.235 225.185 326.469 226.415 327.535C228.292 329.164 238.515 353.495 238.515 356.335C238.515 357.929 237.092 359.92 232.541 364.699C232.141 365.115 231.756 365.529 231.381 365.935L231.346 365.969C228.846 368.431 226.826 370.869 226.658 371.624C226.613 371.699 226.582 371.782 226.568 371.868C226.568 373.482 246.879 393.449 248.522 393.449C248.535 393.449 248.553 393.443 248.568 393.442C248.583 393.441 248.59 393.45 248.597 393.45C249.453 393.45 252.704 390.901 256.214 387.476C260.507 383.288 262.84 381.536 264.168 381.505C266.868 381.584 291.687 391.781 292.856 393.305C293.471 394.105 293.777 397.305 293.776 402.905C293.776 408.435 293.946 410.741 294.529 411.889C294.556 411.984 294.591 412.076 294.634 412.165C295.371 413.534 296.314 413.621 310.279 413.621H310.952C324.916 413.621 325.86 413.534 326.597 412.165C326.64 412.077 326.675 411.984 326.702 411.889C327.286 410.741 327.455 408.434 327.455 402.905C327.455 397.305 327.762 394.105 328.375 393.305C329.545 391.786 354.362 381.589 357.064 381.505C358.391 381.536 360.725 383.288 365.017 387.476C368.527 390.901 371.778 393.45 372.634 393.45C372.641 393.45 372.656 393.443 372.663 393.442C372.67 393.441 372.696 393.449 372.709 393.449C374.352 393.449 394.664 373.483 394.664 371.868C394.65 371.782 394.62 371.699 394.574 371.624C394.406 370.874 392.388 368.431 389.886 365.969L389.851 365.935C389.475 365.529 389.087 365.115 388.691 364.699C384.14 359.92 382.717 357.929 382.717 356.335C382.717 353.498 392.938 329.167 394.817 327.535C396.042 326.472 397.767 326.235 404.417 326.235C410.764 326.235 412.778 325.976 413.717 325.04C415.433 323.322 415.433 296.289 413.715 294.572Z" stroke="#FF7F00" stroke-miterlimit="10"/>
<path d="M388.09 330.035C387.708 329.092 386.363 328.305 381.876 326.4C377.179 324.406 376.029 323.723 375.482 322.604C374.645 320.889 374.721 300.623 375.571 298.619C376.05 297.493 377.653 296.513 382.304 294.5C382.688 294.334 383.065 294.168 383.434 294.002L383.606 293.931C385.313 293.294 386.939 292.458 388.451 291.441C388.541 291.386 388.619 291.312 388.679 291.225C389.164 290.084 380.797 269.874 379.636 269.381C379.627 269.377 379.613 269.371 379.601 269.371C379.589 269.372 379.589 269.361 379.584 269.359C378.978 269.102 375.915 269.929 372.407 271.296C368.119 272.967 365.943 273.505 364.997 273.131C363.122 272.278 348.625 257.608 348.254 256.182C348.059 255.435 348.802 253.082 350.483 249.123C352.14 245.22 352.714 243.538 352.648 242.55C352.658 242.474 352.661 242.397 352.658 242.32C352.546 241.129 351.906 240.784 342.034 236.593L341.556 236.39C331.685 232.199 330.992 231.978 330.061 232.725C330.003 232.776 329.949 232.832 329.901 232.892C329.145 233.531 328.333 235.112 326.676 239.015C324.996 242.974 323.819 245.143 323.147 245.522C321.862 246.244 301.24 246.004 299.323 245.249C298.396 244.828 297.271 242.888 295.497 238.643C294.043 235.17 292.511 232.392 291.906 232.135C291.901 232.133 291.89 232.134 291.884 232.131C291.879 232.129 291.863 232.117 291.853 232.113C290.692 231.62 270.342 239.639 269.858 240.78C269.837 240.884 269.838 240.991 269.861 241.094C270.18 242.888 270.708 244.638 271.434 246.309L271.503 246.482C271.641 246.862 271.783 247.248 271.93 247.641C273.713 252.385 274.119 254.223 273.643 255.346C272.791 257.352 258.264 271.483 256.45 272.069C255.264 272.453 253.976 272.101 249.278 270.106C244.791 268.201 243.29 267.781 242.347 268.16C240.615 268.859 232.502 287.968 233.201 289.698C233.582 290.64 234.928 291.428 239.415 293.333C244.112 295.327 245.262 296.01 245.809 297.129C246.646 298.844 246.57 319.11 245.72 321.114C245.241 322.24 243.638 323.221 238.987 325.233C238.586 325.409 238.185 325.585 237.795 325.758L237.76 325.772C235.252 326.761 233.094 327.882 232.748 328.361C232.693 328.4 232.647 328.45 232.611 328.507C232.127 329.648 240.492 349.857 241.653 350.35C241.663 350.354 241.676 350.36 241.688 350.358C241.7 350.357 241.701 350.371 241.706 350.373C242.311 350.629 245.374 349.803 248.883 348.436C253.179 346.766 255.35 346.225 256.293 346.6C258.179 347.467 272.662 362.122 273.033 363.547C273.228 364.295 272.485 366.648 270.803 370.607C269.143 374.516 268.571 376.198 268.637 377.188C268.628 377.263 268.625 377.339 268.629 377.415C268.739 378.604 269.38 378.949 279.251 383.14L279.726 383.342C289.598 387.532 290.291 387.754 291.223 387.007C291.28 386.957 291.333 386.903 291.38 386.843C292.137 386.207 292.95 384.627 294.611 380.714C296.291 376.755 297.468 374.586 298.141 374.206C299.426 373.484 320.027 373.724 321.96 374.478C322.89 374.898 324.013 376.838 325.786 381.084C327.24 384.558 328.773 387.336 329.378 387.593C329.383 387.595 329.396 387.594 329.4 387.596C329.405 387.598 329.421 387.611 329.43 387.615C330.592 388.108 350.942 380.09 351.427 378.948C351.443 378.883 351.446 378.815 351.436 378.749C351.543 378.168 350.849 375.836 349.817 373.344L349.803 373.31C349.659 372.909 349.509 372.501 349.353 372.087C347.57 367.343 347.164 365.505 347.64 364.383C348.491 362.378 363.019 348.245 364.833 347.659C366.019 347.276 367.307 347.628 372.005 349.622C376.492 351.527 377.994 351.948 378.936 351.568C380.676 350.873 388.788 331.764 388.09 330.035Z" stroke="#FF7F00" stroke-width="1.00056" stroke-miterlimit="10"/>
<path d="M369.84 301.057C369.302 300.52 368.146 300.371 364.5 300.371C360.682 300.371 359.692 300.237 358.988 299.626C357.911 298.69 352.039 284.715 352.039 283.085C352.039 282.17 352.856 281.026 355.47 278.285C355.686 278.058 355.897 277.834 356.103 277.612L356.203 277.512C357.191 276.574 358.066 275.523 358.81 274.382C358.856 274.317 358.888 274.244 358.904 274.167C358.904 273.24 347.237 261.767 346.293 261.767C346.286 261.767 346.275 261.767 346.266 261.767C346.257 261.767 346.255 261.767 346.251 261.767C345.759 261.767 343.892 263.232 341.876 265.198C339.413 267.598 338.076 268.609 337.31 268.628C335.77 268.588 321.501 262.728 320.829 261.853C320.477 261.395 320.301 259.558 320.301 256.341C320.301 253.17 320.201 251.841 319.87 251.183C319.854 251.127 319.834 251.073 319.809 251.022C319.386 250.236 318.844 250.186 310.822 250.186H310.431C302.41 250.186 301.868 250.236 301.445 251.022C301.42 251.073 301.4 251.127 301.384 251.183C301.05 251.844 300.953 253.17 300.953 256.341C300.953 259.557 300.777 261.395 300.425 261.853C299.753 262.726 285.484 268.589 283.944 268.628C283.182 268.609 281.844 267.602 279.378 265.198C277.362 263.231 275.494 261.767 275.003 261.767C275.003 261.767 274.992 261.767 274.988 261.767C274.984 261.767 274.969 261.767 274.961 261.767C274.017 261.767 262.351 273.236 262.351 274.167C262.367 274.244 262.399 274.317 262.445 274.382C263.189 275.523 264.064 276.574 265.052 277.512L265.152 277.612C265.357 277.834 265.568 278.058 265.785 278.285C268.399 281.03 269.216 282.174 269.216 283.085C269.216 284.715 263.345 298.69 262.267 299.626C261.567 300.237 260.573 300.371 256.755 300.371C253.109 300.371 251.955 300.52 251.415 301.057C250.428 302.044 250.428 317.571 251.415 318.557C251.952 319.094 253.109 319.243 256.755 319.243C260.573 319.243 261.563 319.377 262.267 319.988C263.345 320.924 269.216 334.899 269.216 336.529C269.216 337.444 268.399 338.588 265.785 341.329C265.557 341.568 265.334 341.806 265.118 342.039L265.098 342.059C264.036 342.994 263.128 344.09 262.405 345.307C262.379 345.349 262.361 345.397 262.353 345.447C262.353 346.374 274.02 357.847 274.963 357.847C274.971 357.847 274.981 357.847 274.989 357.847C274.997 357.847 275.001 357.847 275.006 357.847C275.498 357.847 277.365 356.383 279.381 354.416C281.847 352.01 283.187 351.004 283.95 350.986C285.502 351.031 299.757 356.886 300.428 357.761C300.781 358.218 300.957 360.055 300.956 363.273C300.956 366.449 301.056 367.773 301.388 368.434C301.404 368.488 301.424 368.541 301.448 368.592C301.871 369.378 302.413 369.428 310.434 369.428H310.82C318.841 369.428 319.383 369.378 319.806 368.592C319.831 368.541 319.851 368.488 319.866 368.434C320.201 367.775 320.298 366.449 320.298 363.273C320.298 360.056 320.474 358.219 320.826 357.761C321.498 356.889 335.753 351.031 337.305 350.986C338.067 351.004 339.405 352.01 341.873 354.416C343.889 356.383 345.757 357.847 346.248 357.847C346.248 357.847 346.26 357.847 346.265 357.847C346.27 357.847 346.284 357.847 346.291 357.847C347.235 357.847 358.902 346.379 358.902 345.447C358.894 345.397 358.876 345.349 358.85 345.307C358.128 344.09 357.219 342.994 356.157 342.059L356.137 342.039C355.921 341.806 355.698 341.568 355.47 341.329C352.856 338.584 352.039 337.44 352.039 336.529C352.039 334.899 357.91 320.924 358.988 319.988C359.688 319.378 360.682 319.243 364.5 319.243C368.146 319.243 369.3 319.094 369.84 318.557C370.826 317.571 370.826 302.043 369.84 301.057Z" stroke="#FF7F00" stroke-miterlimit="10"/>
<path d="M355.121 321.425C354.901 320.884 354.129 320.432 351.551 319.337C348.852 318.191 348.191 317.802 347.878 317.156C347.398 316.171 347.442 304.53 347.932 303.374C348.206 302.73 349.128 302.164 351.8 301.008C352.021 300.913 352.237 300.818 352.45 300.722L352.55 300.688C353.53 300.322 354.463 299.843 355.331 299.259C355.382 299.228 355.427 299.185 355.461 299.136C355.74 298.48 350.934 286.872 350.267 286.589L350.249 286.581L350.238 286.576C349.89 286.429 348.13 286.903 346.115 287.689C343.652 288.649 342.402 288.959 341.862 288.745C340.786 288.254 332.458 279.828 332.245 279.009C332.133 278.581 332.56 277.229 333.525 274.955C334.477 272.713 334.806 271.747 334.768 271.18C334.773 271.136 334.775 271.092 334.773 271.047C334.708 270.368 334.341 270.166 328.669 267.758L328.393 267.641C322.723 265.234 322.325 265.107 321.787 265.534C321.753 265.563 321.723 265.596 321.695 265.63C321.261 265.997 320.794 266.905 319.843 269.146C318.878 271.418 318.202 272.664 317.815 272.883C317.078 273.298 305.231 273.161 304.131 272.726C303.598 272.484 302.952 271.37 301.936 268.934C301.102 266.939 300.221 265.342 299.874 265.195L299.863 265.19L299.844 265.182C299.177 264.899 287.489 269.503 287.21 270.16C287.198 270.22 287.199 270.281 287.212 270.34C287.395 271.37 287.698 272.374 288.115 273.333L288.155 273.432C288.234 273.65 288.315 273.872 288.4 274.098C289.425 276.823 289.659 277.877 289.384 278.524C288.895 279.676 280.551 287.794 279.507 288.135C278.826 288.356 278.086 288.154 275.387 287.008C272.809 285.913 271.948 285.672 271.405 285.89C270.412 286.292 265.752 297.268 266.153 298.261C266.372 298.803 267.145 299.255 269.723 300.35C272.422 301.495 273.083 301.885 273.396 302.53C273.877 303.515 273.832 315.157 273.342 316.312C273.068 316.957 272.146 317.523 269.474 318.678C269.241 318.778 269.012 318.88 268.789 318.98L268.77 318.988C267.739 319.327 266.767 319.825 265.891 320.465C265.859 320.487 265.832 320.516 265.812 320.548C265.533 321.204 270.338 332.812 271.006 333.095L271.024 333.103L271.036 333.108C271.384 333.256 273.144 332.781 275.159 331.995C277.624 331.035 278.873 330.725 279.417 330.942C280.5 331.44 288.819 339.858 289.032 340.676C289.144 341.106 288.717 342.457 287.751 344.732C286.798 346.977 286.47 347.943 286.508 348.51C286.503 348.553 286.501 348.596 286.503 348.639C286.568 349.319 286.935 349.52 292.607 351.928L292.884 352.046C298.553 354.453 298.952 354.579 299.49 354.152C299.522 354.124 299.552 354.092 299.579 354.059C300.014 353.693 300.48 352.786 301.434 350.54C302.398 348.269 303.074 347.023 303.462 346.802C304.199 346.387 316.033 346.525 317.144 346.959C317.678 347.199 318.323 348.314 319.344 350.754C320.178 352.749 321.06 354.345 321.407 354.492L321.419 354.497L321.437 354.505C322.104 354.788 333.792 350.185 334.071 349.527C334.081 349.49 334.082 349.451 334.077 349.412C333.931 348.335 333.618 347.288 333.148 346.308L333.14 346.288C333.057 346.059 332.971 345.823 332.881 345.586C331.857 342.861 331.623 341.807 331.897 341.161C332.386 340.008 340.73 331.892 341.775 331.549C342.455 331.329 343.196 331.531 345.894 332.676C348.473 333.771 349.333 334.012 349.876 333.794C350.862 333.395 355.523 322.417 355.121 321.425Z" stroke="#FF7F00" stroke-width="1.00056" stroke-miterlimit="10"/>
<path d="M615.851 264.702C613.078 261.932 607.118 261.164 588.324 261.164C568.646 261.164 563.541 260.474 559.913 257.326C554.359 252.502 524.095 180.464 524.095 172.062C524.095 167.346 528.307 161.449 541.783 147.299C542.897 146.129 543.984 144.972 545.044 143.828C545.214 143.653 545.371 143.498 545.544 143.319C552.226 136.529 557.731 129.876 558.982 127.183C559.218 126.85 559.382 126.472 559.466 126.073C559.466 121.293 499.327 62.1726 494.466 62.1726C494.428 62.1726 494.366 62.1906 494.329 62.1926C494.309 62.1926 494.272 62.1726 494.249 62.1726C491.715 62.1726 482.089 69.7226 471.697 79.8606C458.997 92.2506 452.088 97.4396 448.159 97.5396C440.222 97.3336 366.671 67.1146 363.204 62.6146C361.388 60.2579 360.48 50.7876 360.48 34.2036C360.48 17.8576 359.98 11.0236 358.26 7.61856C358.179 7.33306 358.074 7.05503 357.946 6.78757C355.764 2.73457 352.971 2.47656 311.624 2.47656H309.624C268.279 2.47656 265.484 2.73557 263.304 6.78757C263.174 7.05451 263.068 7.33263 262.988 7.61856C261.268 11.0186 260.768 17.8596 260.768 34.2036C260.768 50.7862 259.86 60.2566 258.044 62.6146C254.579 67.1146 181.027 97.3336 173.089 97.5396C169.16 97.4396 162.251 92.2506 149.551 79.8606C139.159 69.7236 129.533 62.1726 126.999 62.1726C126.979 62.1726 126.942 62.1926 126.919 62.1926C126.877 62.1926 126.819 62.1726 126.782 62.1726C121.918 62.1726 61.7818 121.29 61.7818 126.073C61.8641 126.472 62.029 126.85 62.2658 127.183C63.5168 129.876 69.0228 136.529 75.7038 143.319C75.8788 143.498 76.0358 143.653 76.2038 143.828C77.2631 144.97 78.3501 146.127 79.4648 147.299C92.9408 161.449 97.1528 167.346 97.1528 172.062C97.1528 180.462 66.8888 252.502 61.3348 257.326C57.7068 260.474 52.6018 261.164 32.9238 261.164C14.1308 261.164 8.16976 261.931 5.39676 264.702C0.311758 269.787 0.311758 349.825 5.39676 354.91C8.16676 357.681 14.1298 358.448 32.9238 358.448C52.6018 358.448 57.7068 359.14 61.3348 362.286C66.8908 367.11 97.1528 439.149 97.1528 447.548C97.1528 452.266 92.9408 458.163 79.4648 472.311C78.2908 473.543 77.1408 474.767 76.0288 475.97L75.9288 476.07C68.5198 483.36 62.5458 490.592 62.0478 492.814C61.9124 493.035 61.8213 493.28 61.7798 493.537C61.7798 498.317 121.916 557.437 126.78 557.437C126.82 557.437 126.873 557.419 126.915 557.415C126.939 557.415 126.979 557.439 127.001 557.439C129.535 557.439 139.161 549.891 149.553 539.751C162.264 527.351 169.171 522.163 173.102 522.072C181.102 522.306 254.579 552.497 258.041 556.995C259.86 559.354 260.768 568.825 260.765 585.408C260.765 601.78 261.265 608.608 262.994 612.008C263.074 612.288 263.179 612.561 263.306 612.824C265.488 616.877 268.281 617.135 309.626 617.135H311.618C352.963 617.135 355.756 616.876 357.938 612.824C358.066 612.561 358.17 612.288 358.25 612.008C359.979 608.608 360.479 601.778 360.479 585.408C360.479 568.825 361.387 559.354 363.203 556.995C366.668 552.495 440.145 522.307 448.144 522.072C452.073 522.163 458.982 527.352 471.691 539.751C482.083 549.891 491.709 557.439 494.243 557.439C494.265 557.439 494.307 557.417 494.329 557.415C494.371 557.415 494.429 557.437 494.464 557.437C499.328 557.437 559.464 498.322 559.464 493.537C559.422 493.28 559.331 493.035 559.196 492.814C558.696 490.592 552.724 483.36 545.316 476.07L545.216 475.97C544.102 474.77 542.954 473.542 541.78 472.311C528.304 458.163 524.092 452.266 524.092 447.548C524.092 439.148 554.354 367.11 559.91 362.286C563.538 359.14 568.643 358.448 588.321 358.448C607.114 358.448 613.077 357.681 615.848 354.91C620.936 349.825 620.936 269.79 615.851 264.702Z" stroke="#FF7F00" stroke-miterlimit="10"/>
<path d="M539.974 369.701C538.845 366.911 534.865 364.581 521.578 358.94C507.67 353.036 504.266 351.015 502.646 347.701C500.167 342.626 500.393 282.619 502.915 276.679C504.33 273.345 509.077 270.442 522.85 264.483C523.988 263.991 525.103 263.499 526.194 263.007C526.367 262.935 526.524 262.872 526.703 262.799C533.463 260.005 539.352 256.955 541.044 255.425C541.311 255.261 541.541 255.043 541.72 254.786C543.155 251.407 518.384 191.571 514.946 190.111C514.919 190.1 514.873 190.095 514.843 190.084C514.829 190.078 514.809 190.053 514.793 190.046C513.002 189.286 503.93 191.739 493.543 195.782C480.849 200.73 474.406 202.324 471.599 201.215C466.05 198.688 423.127 155.253 422.03 151.034C421.454 148.824 423.655 141.857 428.631 130.134C433.536 118.579 435.235 113.599 435.042 110.68C435.07 110.454 435.079 110.226 435.069 109.999C434.74 106.473 432.843 105.45 403.615 93.042L402.201 92.4414C372.975 80.0338 370.921 79.3793 368.163 81.5882C367.991 81.7378 367.833 81.9027 367.69 82.0807C365.453 83.9712 363.051 88.6551 358.148 100.204C353.172 111.926 349.688 118.348 347.696 119.47C343.897 121.611 282.835 120.9 277.166 118.664C274.418 117.415 271.091 111.673 265.833 99.1035C261.522 88.8209 256.982 80.5946 255.191 79.8341C255.177 79.8282 255.145 79.8307 255.129 79.8241C255.1 79.8115 255.066 79.7809 255.038 79.7692C251.6 78.3096 191.35 102.051 189.915 105.43C189.853 105.738 189.857 106.054 189.924 106.36C190 108.639 191.896 114.994 194.581 121.8C194.651 121.979 194.716 122.135 194.785 122.31C195.191 123.436 195.611 124.58 196.046 125.741C201.325 139.788 202.534 145.22 201.118 148.554C198.597 154.494 155.585 196.334 150.211 198.077C146.701 199.213 142.889 198.171 128.976 192.264C115.691 186.625 111.247 185.378 108.456 186.504C103.34 188.571 79.3192 245.151 81.3851 250.271C82.5118 253.06 86.4942 255.391 99.7815 261.032C113.689 266.936 117.092 268.958 118.713 272.271C121.193 277.346 120.965 337.354 118.445 343.29C117.029 346.625 112.282 349.53 98.5102 355.487C97.3118 356.005 96.1301 356.525 94.9832 357.043L94.8791 357.083C87.4537 360.013 81.0605 363.332 80.042 364.753C79.88 364.869 79.7422 365.016 79.6362 365.184C78.2016 368.563 102.971 428.398 106.409 429.858C106.437 429.87 106.479 429.873 106.508 429.881C106.536 429.889 106.545 429.918 106.561 429.924C108.352 430.685 117.422 428.238 127.811 424.189C140.517 419.238 146.957 417.642 149.762 418.759C155.347 421.325 198.227 464.717 199.326 468.932C199.905 471.146 197.704 478.113 192.725 489.835C187.812 501.408 186.117 506.386 186.318 509.307C186.291 509.529 186.283 509.753 186.294 509.977C186.62 513.497 188.516 514.517 217.743 526.925L219.152 527.523C248.378 539.931 250.431 540.585 253.188 538.376C253.357 538.229 253.513 538.067 253.653 537.893C255.895 536.01 258.299 531.33 263.211 519.759C268.188 508.037 271.672 501.614 273.664 500.491C277.463 498.351 338.464 499.061 344.186 501.299C346.937 502.542 350.264 508.284 355.526 520.863C359.829 531.149 364.368 539.373 366.16 540.134C366.175 540.141 366.211 540.137 366.228 540.142C366.257 540.155 366.29 540.187 366.313 540.197C369.751 541.657 430.003 517.917 431.438 514.538C431.486 514.344 431.495 514.143 431.466 513.946C431.781 512.226 429.729 505.321 426.679 497.945L426.635 497.842C426.209 496.657 425.765 495.447 425.305 494.225C420.025 480.179 418.817 474.747 420.232 471.412C422.753 465.474 465.763 423.633 471.139 421.891C474.648 420.755 478.461 421.797 492.374 427.703C505.658 433.343 510.103 434.59 512.893 433.464C518.023 431.399 542.043 374.822 539.974 369.701Z" stroke="#FF7F00" stroke-width="1.00056" stroke-miterlimit="10"/>
</g>
</svg>
