<svg xmlns="http://www.w3.org/2000/svg" width="62.302" height="60.087" viewBox="0 0 62.302 60.087"><g transform="translate(-444.717 -2562.085)"><path d="M586.28,2561.632a15,15,0,0,0-13.343,24.391l-1.878,6.028,5.51-2.815a15,15,0,1,0,9.711-27.6Z" transform="translate(-93.541 1.566)" fill="none" stroke="#2a63fd" stroke-miterlimit="10" stroke-width="2"/><path d="M449.783,2587.712a12.123,12.123,0,0,1,10.786,19.718l1.518,4.873-4.454-2.276a12.126,12.126,0,1,1-7.85-22.315Z" transform="translate(6.67 -18.686)" fill="none" stroke="#0a2741" stroke-miterlimit="10" stroke-width="2"/><circle cx="5.047" cy="5.047" r="5.047" transform="translate(454.613 2599.748) rotate(-4.731)" fill="none" stroke="#2a63fd" stroke-miterlimit="10" stroke-width="2"/><path d="M493.275,2717.2a9.783,9.783,0,0,1-.352,2.611H473.786a9.8,9.8,0,0,1-.351-2.611,9.908,9.908,0,0,1,4.657-8.41,7.013,7.013,0,0,0,10.526,0A9.908,9.908,0,0,1,493.275,2717.2Z" transform="translate(-23.296 -98.642)" fill="none" stroke="#2a63fd" stroke-miterlimit="10" stroke-width="2"/><circle cx="5.047" cy="5.047" r="5.047" transform="translate(479.426 2600.188) rotate(-9.217)" fill="none" stroke="#0a2741" stroke-miterlimit="10" stroke-width="2"/><path d="M571.309,2717.2a9.8,9.8,0,0,1-.351,2.611H551.82a9.8,9.8,0,0,1-.351-2.611,9.908,9.908,0,0,1,4.657-8.41,7.014,7.014,0,0,0,10.526,0A9.908,9.908,0,0,1,571.309,2717.2Z" transform="translate(-76.173 -98.642)" fill="none" stroke="#0a2741" stroke-miterlimit="10" stroke-width="2"/></g></svg>