<svg xmlns="http://www.w3.org/2000/svg" width="67.416" height="55.369" viewBox="0 0 67.416 55.369"><g transform="translate(-2099.102 -1054.543)"><path d="M2147.447,1065.34a26.593,26.593,0,1,0,3.155,4.84" fill="none" stroke="#0a2741" stroke-miterlimit="10" stroke-width="2"/><path d="M2161.463,1091.547a19.174,19.174,0,1,1-3.152-4.841" transform="translate(-17.227 -17.226)" fill="none" stroke="#0a2741" stroke-miterlimit="10" stroke-width="2"/><path d="M2172.212,1112.861a11.672,11.672,0,1,1-3.152-4.842" transform="translate(-34.376 -34.376)" fill="none" stroke="#0a2741" stroke-miterlimit="10" stroke-width="2"/><path d="M2158.311,1086.706a19.145,19.145,0,1,0,3.152,4.841" transform="translate(-17.227 -17.226)" fill="none" stroke="#0a2741" stroke-miterlimit="10" stroke-width="2"/><path d="M2169.06,1108.019a11.662,11.662,0,1,0,3.152,4.842" transform="translate(-34.376 -34.376)" fill="none" stroke="#2a63fd" stroke-miterlimit="10" stroke-width="2"/><path d="M2181.992,1133.453a4.526,4.526,0,1,1-3.147-4.844" transform="translate(-50.707 -50.707)" fill="none" stroke="#2a63fd" stroke-miterlimit="10" stroke-width="2"/><path d="M2202.662,1145.012" transform="translate(-71.376 -62.266)" fill="none" stroke="#0a2741" stroke-miterlimit="10" stroke-width="2"/><path d="M2187.813,1082.227l27.979-18.211v-3.844l7.318-4.629v3.554l3.451,1.188-7.523,4.921-3.245-1.19" transform="translate(-61.042)" fill="none" stroke="#0a2741" stroke-linecap="round" stroke-linejoin="round" stroke-width="2"/></g></svg>