<svg xmlns="http://www.w3.org/2000/svg" width="61.398" height="66.5" viewBox="0 0 61.398 66.5"><g transform="translate(-107.822 -370.019)"><path d="M202.29,387.654a3.085,3.085,0,0,1,3.065,3c0,1.263-1.532,3.065-1.532,3.065-.9,1.656,1.014,1.656,1.014,1.656h9.587V374.534a3.515,3.515,0,0,0-3.515-3.515H190.157v9.659s.036,1.126-.977.984a1.2,1.2,0,0,1-.546-.235c-.7-.518-3.642-2.307-5.282-.045a3.182,3.182,0,0,0,.009,3.735c1.642,2.22,4.573.368,5.273-.15a1.208,1.208,0,0,1,.546-.234c1.013-.142.977.984.977.984v9.66h9.587s1.915,0,1.014-1.656c0,0-1.532-1.8-1.532-3.065A3.033,3.033,0,0,1,202.29,387.654Z" transform="translate(-46.205 0)" fill="none" stroke="#2a63fd" stroke-miterlimit="10" stroke-width="2"/><path d="M133.089,502.364v.02h-20a4.27,4.27,0,0,1-4.27-4.27V478.025h9.586s1.915,0,1.014,1.657c0,0-1.533,1.8-1.533,3.066a3.065,3.065,0,0,0,6.129,0c0-1.265-1.53-3.066-1.53-3.066-.9-1.657,1.014-1.657,1.014-1.657l9.585-.018v9.659s.036,1.126-.977.984a1.2,1.2,0,0,1-.546-.235c-.7-.518-3.642-2.307-5.282-.045a3.182,3.182,0,0,0,.009,3.735c1.642,2.22,4.574.367,5.274-.15a1.208,1.208,0,0,1,.546-.234c1.013-.142.977.984.977.984Z" transform="translate(0 -66.866)" fill="none" stroke="#0a2741" stroke-miterlimit="10" stroke-width="2"/><path d="M108.822,437.565V417.279A3.979,3.979,0,0,1,112.8,413.3l20.288,0v9.586s0,1.917-1.65,1.014c0,0-1.794-1.53-3.054-1.53a3.077,3.077,0,0,0-2.991,3.063,3.029,3.029,0,0,0,2.991,3.066c1.26,0,3.054-1.533,3.054-1.533,1.65-.9,1.65,1.015,1.65,1.015v9.586" transform="translate(0 -26.424)" fill="none" stroke="#0a2741" stroke-miterlimit="10" stroke-width="2"/><path d="M173.531,465.627h.008l9.6.037s1.127.034.985-.978a1.212,1.212,0,0,0-.234-.545c-.518-.7-2.37-3.633-.151-5.273a3.184,3.184,0,0,1,3.741,0c2.251,1.641.467,4.578-.051,5.278a1.192,1.192,0,0,0-.236.545c-.141,1.012.985.978.985.978l9.624,0v20.63a3.751,3.751,0,0,1-3.751,3.751H173.531" transform="translate(-40.442 -54.523)" fill="none" stroke="#0a2741" stroke-miterlimit="10" stroke-width="2"/></g></svg>