<svg xmlns="http://www.w3.org/2000/svg" width="76.308" height="64.074" viewBox="0 0 76.308 64.074"><g transform="translate(-1179.014 -1933.53)"><g transform="translate(1180.277 1966.024)"><path d="M1184.321,2028.024l-3.986-2.509,1.411-3.6,4.646,1.084a11.3,11.3,0,0,1,2.342-2.352l-1.045-4.594,3.544-1.55,2.519,4.052h0a11.372,11.372,0,0,1,3.32-.007l2.509-3.986,3.6,1.41-1.084,4.646a11.307,11.307,0,0,1,2.352,2.342l4.594-1.045,1.55,3.544-4.052,2.519a11.358,11.358,0,0,1,.007,3.32l3.986,2.509-1.41,3.6-4.647-1.084a11.284,11.284,0,0,1-2.342,2.352l1.045,4.594-3.544,1.55-2.519-4.051a11.364,11.364,0,0,1-3.32.007l-2.509,3.987-3.6-1.411,1.084-4.646a11.3,11.3,0,0,1-2.352-2.342l-4.593,1.045-1.55-3.544,4.051-2.519a11.373,11.373,0,0,1-.007-3.32Z" transform="translate(-1180.277 -2014.501)" fill="none" stroke="#2a63fd" stroke-miterlimit="10" stroke-width="2"/><path d="M1203.306,2043.667a6.136,6.136,0,1,1,6.136,6.135A6.136,6.136,0,0,1,1203.306,2043.667Z" transform="translate(-1194.283 -2028.508)" fill="none" stroke="#2a63fd" stroke-miterlimit="10" stroke-width="2"/></g><g transform="translate(1188.433 1934.793)"><path d="M1204.05,1944.678l-2.914-1.834,1.031-2.633,3.4.793a8.257,8.257,0,0,1,1.712-1.719l-.764-3.358,2.591-1.133,1.841,2.962h0a8.307,8.307,0,0,1,2.427-.005l1.834-2.914,2.633,1.031-.793,3.4a8.244,8.244,0,0,1,1.719,1.712l3.358-.764,1.133,2.591-2.962,1.841a8.211,8.211,0,0,1,.092,1.231,8.307,8.307,0,0,1-.086,1.2l2.914,1.834-1.031,2.633-3.4-.792a8.257,8.257,0,0,1-1.712,1.719l.764,3.358-2.591,1.133-1.841-2.962a8.313,8.313,0,0,1-2.427.005l-1.834,2.914-2.633-1.031.792-3.4a8.268,8.268,0,0,1-1.719-1.712l-3.358.764-1.133-2.591,2.962-1.841a8.291,8.291,0,0,1-.005-2.427Z" transform="translate(-1201.094 -1934.793)" fill="none" stroke="#0a2741" stroke-miterlimit="10" stroke-width="2"/><circle cx="3.074" cy="3.074" r="3.074" transform="translate(8.006 8.006)" fill="none" stroke="#0a2741" stroke-miterlimit="10" stroke-width="2"/></g><g transform="translate(1211.843 1945.873)"><path d="M1267.041,1986.878l-6.2-1.55.3-5.239,6.447-.566a15.323,15.323,0,0,1,2.025-4.021l-3.288-5.48,3.914-3.5,4.959,4.158h0a15.434,15.434,0,0,1,4.277-1.412l1.549-6.2,5.239.3.567,6.448a15.311,15.311,0,0,1,4.021,2.025l5.48-3.288,3.5,3.914-4.158,4.959a15.408,15.408,0,0,1,1.412,4.277l6.2,1.55-.3,5.24-6.447.566a15.334,15.334,0,0,1-2.025,4.021l3.288,5.48-3.914,3.5-4.959-4.158a15.412,15.412,0,0,1-4.277,1.412l-1.55,6.2-5.239-.3-.566-6.448a15.324,15.324,0,0,1-4.021-2.025l-5.48,3.288-3.5-3.914,4.158-4.959a15.408,15.408,0,0,1-1.412-4.277Z" transform="translate(-1260.842 -1963.073)" fill="none" stroke="#0a2741" stroke-miterlimit="10" stroke-width="2"/><circle cx="8.323" cy="8.323" r="8.323" transform="translate(11.458 14.636) rotate(-11.006)" fill="none" stroke="#0a2741" stroke-miterlimit="10" stroke-width="2"/></g></g></svg>