<svg xmlns="http://www.w3.org/2000/svg" width="18" height="18" viewBox="0 0 17.689 17.675"><path d="M-331.581,63.135q0-3.506,0-7.012a1.782,1.782,0,0,1,1.361-1.761,2,2,0,0,1,.459-.053q7.024,0,14.048,0a1.783,1.783,0,0,1,1.82,1.814q0,7.019,0,14.037a1.784,1.784,0,0,1-1.827,1.822h-14.034a1.786,1.786,0,0,1-1.827-1.836Q-331.582,66.64-331.581,63.135Zm7.081,6.2h.153c.778,0,1.556,0,2.334,0,.133,0,.169-.036.169-.17,0-1.473,0-2.945,0-4.418a1.431,1.431,0,0,1,.348-.97,1.3,1.3,0,0,1,1.751-.181,1.386,1.386,0,0,1,.548,1.157c0,1.473,0,2.946,0,4.418,0,.126.03.165.16.164.788-.006,1.575,0,2.363,0,.042,0,.084-.006.129-.009,0-.039.007-.067.007-.1q0-2.455,0-4.911a2.982,2.982,0,0,0-.634-1.871,2.992,2.992,0,0,0-2.225-1.23,2.691,2.691,0,0,0-2.372,1.12c-.014.017-.013.047-.019.071l-.053-.036v-.981H-324.5Zm-1.784-.01V61.387h-2.633v7.935Zm.273-11.043a1.58,1.58,0,0,0-1.6-1.584,1.593,1.593,0,0,0-1.586,1.589,1.6,1.6,0,0,0,1.6,1.591A1.587,1.587,0,0,0-326.011,58.279Z" transform="translate(331.581 -54.308)" fill="#fff"/></svg>