<?xml version="1.0" standalone="no"?>
<!DOCTYPE svg PUBLIC "-//W3C//DTD SVG 20010904//EN"
 "http://www.w3.org/TR/2001/REC-SVG-20010904/DTD/svg10.dtd">
<svg version="1.0" xmlns="http://www.w3.org/2000/svg"
 width="108.000000pt" height="108.000000pt" viewBox="0 0 1080.000000 1080.000000"
 preserveAspectRatio="xMidYMid meet">

<g transform="translate(0.000000,1080.000000) scale(0.100000,-0.100000)"
fill="#000000" stroke="none">
<path d="M5010 10299 c-91 -10 -194 -23 -230 -29 -36 -6 -90 -15 -120 -20
-207 -34 -538 -130 -808 -235 -163 -64 -207 -83 -347 -151 -379 -184 -621
-335 -930 -578 -49 -39 -103 -83 -120 -97 -53 -46 -209 -183 -244 -214 -71
-63 -292 -308 -390 -431 -55 -71 -105 -134 -110 -140 -34 -42 -188 -268 -227
-334 -27 -44 -62 -102 -78 -128 -49 -81 -182 -342 -236 -462 -28 -63 -55 -124
-60 -135 -87 -187 -204 -570 -251 -820 -70 -377 -91 -607 -92 -990 0 -325 4
-388 43 -690 46 -344 144 -718 276 -1049 182 -454 392 -829 679 -1211 243
-323 611 -686 950 -935 65 -48 423 -290 428 -290 2 0 66 -35 143 -78 294 -165
492 -252 819 -360 335 -110 451 -136 940 -204 123 -17 782 -17 930 0 181 21
431 58 480 72 17 4 57 13 90 20 140 29 495 145 690 225 156 63 408 187 528
259 43 25 81 46 84 46 7 0 238 156 346 234 54 39 108 78 120 86 70 47 268 213
366 306 198 189 225 216 342 349 108 122 140 162 266 325 179 234 384 569 502
821 58 126 161 358 161 365 0 3 6 20 14 37 39 87 119 325 148 437 78 302 103
436 140 730 17 140 17 789 -1 915 -51 366 -65 454 -86 560 -106 528 -323 1039
-645 1520 -252 376 -461 629 -771 931 -380 369 -837 685 -1342 927 -162 78
-534 227 -567 227 -6 0 -18 4 -28 10 -48 27 -414 118 -562 140 -41 7 -95 16
-120 21 -206 41 -820 52 -1120 18z m710 -129 c322 -20 482 -43 790 -117 166
-40 344 -97 465 -148 17 -8 56 -22 88 -34 33 -11 75 -30 95 -42 20 -11 70 -34
111 -50 284 -113 765 -405 1021 -620 260 -217 544 -497 743 -732 368 -432 666
-938 838 -1420 46 -126 92 -295 137 -492 23 -100 65 -368 82 -515 29 -259 27
-835 -5 -1055 -18 -127 -52 -320 -65 -365 -5 -19 -18 -71 -29 -115 -11 -44
-36 -134 -56 -200 -20 -66 -41 -136 -47 -155 -15 -51 -121 -324 -156 -400 -42
-92 -178 -368 -206 -415 -12 -22 -38 -67 -56 -100 -227 -411 -608 -874 -990
-1205 -602 -520 -1241 -857 -1960 -1034 -209 -51 -325 -68 -634 -96 -499 -44
-914 -13 -1416 106 -507 120 -1105 400 -1555 729 -337 247 -462 352 -644 541
-260 270 -500 577 -667 850 -71 117 -205 381 -269 529 -30 72 -60 139 -65 150
-19 40 -118 302 -143 380 -35 107 -114 447 -142 610 -57 337 -60 376 -60 800
1 307 5 431 17 535 54 440 146 799 313 1215 67 167 192 424 236 487 11 14 19
28 19 30 0 9 129 218 195 317 77 114 216 298 310 409 93 110 457 467 585 573
249 207 556 407 855 558 222 112 305 149 560 245 504 189 1138 280 1705 246z"/>
<path d="M5240 10069 c-390 -25 -748 -92 -1085 -203 -382 -127 -711 -285
-1031 -497 -62 -41 -152 -100 -200 -131 -307 -196 -666 -534 -925 -873 -491
-639 -780 -1299 -908 -2070 -56 -336 -74 -695 -51 -1047 5 -84 14 -184 20
-223 16 -109 49 -295 61 -350 6 -27 14 -66 19 -85 58 -264 170 -619 252 -800
99 -219 320 -626 432 -796 86 -131 269 -379 306 -414 3 -3 62 -68 132 -145
208 -230 393 -404 583 -547 84 -63 518 -349 590 -389 166 -91 324 -163 570
-261 293 -117 549 -176 1030 -240 138 -18 832 -18 970 0 237 31 322 44 355 52
19 5 76 17 125 26 236 43 601 174 910 324 536 262 1122 718 1485 1155 41 50
77 92 81 95 36 32 315 445 391 579 57 100 123 223 152 286 107 225 176 374
176 379 0 3 11 29 23 58 13 29 33 78 45 108 11 30 27 74 35 96 22 59 96 315
108 377 6 29 15 70 20 92 34 149 66 413 79 664 11 207 2 572 -20 741 -55 435
-74 524 -175 840 -46 146 -118 340 -160 435 -39 89 -161 328 -190 374 -14 22
-25 43 -25 45 0 22 -233 377 -307 469 -56 68 -73 80 -73 50 0 -9 -12 -29 -27
-45 l-26 -27 68 -72 c59 -63 165 -212 183 -257 3 -9 41 -78 83 -153 194 -342
278 -536 372 -864 87 -302 104 -383 142 -682 39 -301 48 -477 41 -778 -8 -386
-35 -656 -85 -870 -30 -127 -112 -365 -125 -365 -19 0 -36 22 -36 46 0 11 20
69 44 127 87 208 114 342 127 637 5 118 13 258 19 310 45 444 -2 989 -122
1435 -70 261 -183 552 -297 770 -94 179 -272 472 -346 570 -150 198 -297 377
-380 463 -220 227 -621 549 -890 715 -224 139 -479 262 -494 239 -3 -5 -24
-15 -46 -22 -84 -26 -79 -32 110 -130 77 -40 152 -81 167 -91 14 -11 28 -19
31 -19 6 0 139 -81 227 -138 117 -76 331 -240 584 -446 140 -115 166 -140 264
-256 40 -47 99 -116 133 -155 104 -121 315 -425 416 -600 169 -293 343 -696
383 -885 6 -25 19 -79 30 -120 60 -228 98 -449 120 -685 15 -164 12 -569 -5
-777 -15 -169 -22 -228 -45 -378 -19 -119 -95 -408 -130 -495 -4 -11 -25 -69
-45 -130 -44 -132 -201 -455 -330 -680 -93 -164 -310 -494 -417 -634 -70 -93
-314 -355 -425 -457 -650 -598 -1310 -926 -2133 -1058 -231 -37 -357 -46 -655
-46 -530 0 -841 49 -1330 210 -450 149 -884 397 -1315 754 -304 252 -424 380
-695 741 -214 285 -298 418 -419 662 -116 234 -122 248 -181 428 -115 348
-182 622 -239 980 -170 1056 142 2224 832 3120 42 53 63 73 92 81 20 6 57 25
81 41 24 17 62 36 84 43 93 29 92 43 -5 51 -84 7 -106 14 -114 35 -11 30 12
54 52 54 31 0 44 8 83 48 71 73 263 234 450 377 286 219 329 247 591 373 221
108 445 212 454 212 3 0 24 8 47 19 89 39 368 130 492 160 390 92 884 142
1206 121 447 -29 792 -97 1206 -235 106 -36 197 -65 201 -65 18 0 52 38 52 57
0 11 -8 27 -17 35 -17 15 -126 68 -139 68 -3 0 -20 7 -37 15 -18 8 -101 37
-185 65 -472 154 -929 216 -1416 191 -122 -7 -257 -16 -301 -22 -44 -5 -116
-14 -160 -20 -466 -59 -921 -197 -1339 -405 -84 -42 -154 -85 -286 -174 -61
-41 -114 -70 -129 -70 -5 0 -3 13 5 30 9 16 13 39 9 49 -9 29 61 77 245 167
236 115 506 234 533 234 7 0 17 4 22 9 11 10 156 57 313 102 190 54 315 81
542 119 419 70 983 70 1373 0 31 -5 81 -14 110 -19 213 -38 613 -165 819 -260
36 -17 69 -31 73 -31 12 0 423 -208 510 -258 266 -153 644 -439 872 -660 34
-33 71 -63 82 -67 11 -3 44 -34 73 -68 29 -34 65 -75 79 -92 15 -16 51 -59 81
-95 39 -47 61 -65 79 -65 21 0 24 4 23 33 -1 19 -13 45 -30 66 -16 18 -38 44
-48 57 -25 32 -254 277 -287 309 -276 261 -706 593 -904 699 -22 11 -67 37
-100 56 -33 20 -107 58 -165 86 -58 28 -117 58 -133 66 -29 15 -47 11 -47 -12
0 -14 -32 -13 -77 1 -18 5 -16 39 2 54 9 7 12 17 8 21 -10 10 -349 137 -458
172 -201 64 -498 129 -675 146 -174 17 -467 25 -474 12 -10 -16 -82 -14 -109
3 -31 19 -112 24 -247 15z m390 -230 c0 -12 -47 -12 -54 0 -3 4 -3 10 0 13 7
8 54 -3 54 -13z m-75 1 c-3 -5 -13 -10 -21 -10 -8 0 -14 5 -14 10 0 6 9 10 21
10 11 0 17 -4 14 -10z m-2435 -575 c0 -16 -27 -32 -37 -21 -7 7 16 36 28 36 5
0 9 -7 9 -15z m-40 -63 l28 -28 -41 -23 c-58 -33 -187 -127 -295 -214 -52 -42
-218 -197 -369 -346 -151 -149 -278 -271 -283 -271 -4 0 -23 -24 -41 -52 -18
-29 -68 -103 -110 -163 -127 -182 -280 -446 -399 -690 -115 -236 -238 -611
-299 -910 -75 -369 -83 -1175 -16 -1675 44 -328 117 -593 280 -1012 30 -77 55
-153 55 -168 0 -16 5 -32 10 -35 14 -9 12 -47 -5 -68 -13 -18 -14 -18 -24 2
-6 11 -11 31 -11 45 0 28 -39 150 -98 306 -68 179 -174 523 -210 680 -6 25
-17 72 -25 105 -48 193 -52 253 -52 820 1 595 8 705 65 1008 41 217 85 377
173 632 79 226 151 379 297 630 114 198 105 184 246 395 222 332 434 559 779
834 156 125 293 226 307 226 5 0 22 -13 38 -28z m-616 -667 c3 -9 0 -15 -8
-15 -7 0 -19 7 -26 15 -10 12 -9 15 8 15 11 0 22 -7 26 -15z m-140 -205 c14
-5 26 -13 26 -18 0 -13 -86 -72 -104 -72 -23 0 -20 42 5 74 22 28 34 31 73 16z
m7306 -4228 c0 -18 -7 -38 -83 -232 -24 -63 -57 -149 -72 -190 -101 -277 -186
-442 -378 -730 -198 -297 -257 -369 -512 -629 -271 -277 -563 -506 -893 -702
-279 -166 -738 -365 -990 -428 -20 -6 -55 -15 -77 -20 -154 -42 -426 -88 -645
-111 -252 -27 -782 -22 -1010 10 -36 4 -105 14 -155 20 -388 50 -784 175
-1200 378 -276 135 -631 369 -905 596 -308 256 -614 614 -875 1026 -152 238
-205 339 -205 384 0 20 4 36 8 36 5 0 21 -29 36 -64 34 -79 135 -250 250 -421
114 -171 109 -164 199 -277 307 -388 685 -733 1112 -1014 174 -114 210 -135
410 -233 595 -293 1168 -421 1885 -421 507 0 885 63 1355 223 143 49 306 112
345 132 14 7 75 37 135 66 236 111 504 274 680 411 419 328 712 626 925 941
283 420 382 594 454 797 29 82 119 315 145 375 5 11 17 39 26 62 17 41 35 49
35 15z"/>
<path d="M5080 9675 c-267 -26 -478 -63 -650 -114 -135 -39 -328 -106 -391
-134 -19 -8 -81 -36 -139 -62 -109 -48 -239 -117 -444 -234 -22 -12 -54 -33
-71 -47 -18 -13 -35 -24 -39 -24 -4 0 -14 -7 -22 -15 -21 -21 -8 -19 24 3 113
78 548 289 727 352 213 76 438 132 680 170 407 64 906 76 1285 31 75 -9 344
-56 495 -87 179 -36 293 -67 348 -95 60 -30 72 -29 35 3 -41 36 -143 76 -274
107 -71 18 -163 40 -204 51 -41 10 -115 26 -165 35 -49 9 -110 21 -135 26
-208 42 -798 61 -1060 34z"/>
<path d="M4930 9409 c-52 -4 -122 -13 -155 -20 -117 -23 -271 -60 -309 -75
-22 -8 -58 -19 -80 -24 -48 -9 -202 -63 -263 -91 -24 -10 -46 -19 -49 -19 -24
0 -515 -241 -594 -291 -167 -106 -257 -165 -268 -176 -7 -7 -17 -13 -21 -13
-4 0 -16 -8 -27 -18 -10 -9 -44 -35 -74 -57 -30 -22 -62 -46 -70 -55 -8 -9
-35 -30 -59 -48 -25 -18 -38 -32 -30 -32 8 0 25 10 39 23 81 74 468 334 623
418 91 49 291 149 299 149 5 0 22 9 37 19 15 11 40 23 57 27 16 4 47 15 69 25
22 9 51 21 65 24 14 4 43 16 65 26 58 26 230 79 305 94 36 8 88 19 115 25 92
20 319 58 390 65 104 9 130 15 114 26 -16 10 -45 10 -179 -2z"/>
<path d="M5870 9400 c36 -4 119 -17 185 -29 66 -11 174 -29 240 -40 66 -11
151 -27 190 -36 89 -20 112 -15 55 11 -101 47 -366 92 -585 98 -103 3 -130 2
-85 -4z"/>
<path d="M6970 9371 c0 -20 62 -60 123 -80 59 -19 147 -62 352 -171 114 -61
369 -231 513 -342 67 -52 178 -148 247 -212 68 -65 149 -138 180 -164 34 -29
55 -54 55 -67 0 -23 17 -45 36 -45 14 0 23 60 13 87 -6 17 -179 173 -264 239
-231 178 -357 269 -525 383 -111 74 -152 100 -250 153 -25 14 -110 61 -191
105 -93 52 -165 85 -202 93 -31 6 -59 16 -62 21 -8 12 -25 12 -25 0z"/>
<path d="M5545 9193 c305 -11 599 -60 972 -163 121 -33 268 -86 453 -162 88
-36 362 -171 437 -216 211 -125 452 -285 558 -371 361 -290 655 -611 867 -950
85 -135 233 -427 266 -526 66 -197 125 -405 152 -540 6 -33 16 -68 21 -77 5
-10 9 -25 9 -35 0 -13 3 -14 11 -6 14 14 6 62 -48 283 -66 268 -134 456 -242
665 -238 459 -507 782 -991 1186 -110 91 -358 260 -560 381 -143 86 -490 258
-518 258 -6 0 -40 13 -74 29 -140 64 -417 144 -674 195 -175 34 -408 56 -573
54 -75 -1 -104 -3 -66 -5z"/>
<path d="M5050 9174 c-93 -14 -167 -28 -180 -36 -16 -10 44 -4 155 14 33 5 98
13 145 17 l85 8 -90 0 c-49 0 -101 -1 -115 -3z"/>
<path d="M6858 9173 c7 -3 16 -2 19 1 4 3 -2 6 -13 5 -11 0 -14 -3 -6 -6z"/>
<path d="M6890 9160 c0 -4 8 -10 18 -14 9 -3 23 -9 30 -12 6 -3 12 -2 12 3 0
5 -13 14 -30 20 -16 6 -30 8 -30 3z"/>
<path d="M4695 9109 c-38 -10 -95 -24 -124 -30 -30 -6 -71 -17 -90 -24 -20 -7
-65 -21 -101 -31 -36 -9 -69 -21 -74 -26 -6 -4 -18 -8 -28 -8 -10 0 -18 -4
-18 -10 0 -5 -11 -10 -25 -10 -13 0 -47 -9 -75 -20 -28 -11 -79 -30 -113 -41
-34 -11 -66 -25 -71 -30 -6 -5 -16 -9 -23 -9 -13 0 -235 -108 -333 -162 -277
-151 -517 -318 -735 -510 -11 -10 -31 -27 -45 -39 -14 -12 -36 -31 -50 -43
-38 -31 -49 -51 -21 -36 12 6 25 18 28 26 3 8 9 14 15 14 5 0 20 10 33 23 28
26 23 22 151 122 55 44 123 96 150 114 86 61 278 188 314 209 19 11 67 37 105
59 39 22 109 61 156 86 47 25 95 50 105 55 28 15 147 66 239 102 44 18 98 40
120 50 22 9 67 25 100 36 33 10 67 21 75 25 8 4 33 12 55 17 22 6 81 21 130
35 50 14 135 35 190 48 129 28 128 27 75 27 -25 0 -76 -8 -115 -19z"/>
<path d="M7150 9032 c165 -82 245 -127 405 -225 11 -6 22 -15 25 -18 3 -3 23
-18 45 -32 45 -30 75 -52 168 -119 36 -27 69 -48 73 -48 15 0 -42 53 -106 98
-36 25 -67 49 -70 52 -3 4 -23 19 -45 33 -22 15 -58 39 -80 54 -143 101 -353
218 -488 272 -154 61 -119 29 73 -67z"/>
<path d="M3246 8994 c-11 -8 -16 -14 -10 -14 13 0 39 18 34 24 -3 2 -14 -2
-24 -10z"/>
<path d="M5471 8886 c-13 -33 -9 -43 8 -22 7 8 11 23 8 33 -3 14 -6 12 -16
-11z"/>
<path d="M3040 8885 c-16 -19 -1 -19 24 0 16 12 17 15 4 15 -8 0 -21 -7 -28
-15z"/>
<path d="M5689 8833 c27 -54 27 -116 0 -187 -23 -60 -20 -101 9 -110 9 -3 25
-24 36 -45 20 -43 35 -54 55 -41 9 5 1 19 -30 49 -23 22 -40 44 -36 48 4 3 44
1 90 -5 45 -7 152 -21 237 -33 85 -11 180 -27 210 -34 576 -140 1114 -439
1548 -859 158 -153 350 -387 432 -525 51 -88 195 -378 239 -482 94 -225 168
-513 205 -798 8 -62 17 -116 21 -119 3 -3 10 -1 16 5 13 13 -4 335 -27 478 -8
55 -19 127 -24 160 -21 136 -96 356 -192 555 -138 289 -303 524 -527 753 -352
359 -585 523 -1061 745 -203 95 -437 170 -715 228 -105 22 -158 27 -277 28
l-148 1 0 50 c0 72 -15 117 -51 151 l-31 29 21 -42z"/>
<path d="M2925 8809 c-27 -23 -59 -48 -70 -57 -11 -10 -49 -40 -85 -69 -78
-62 -186 -170 -178 -178 3 -3 36 24 74 60 91 87 182 164 310 262 18 13 23 22
14 22 -8 0 -37 -18 -65 -40z"/>
<path d="M5375 8786 c-10 -15 -14 -33 -10 -47 5 -14 -2 -37 -19 -69 -30 -56
-27 -71 19 -96 38 -20 59 -11 69 31 8 30 -17 93 -39 101 -17 7 -20 46 -4 76
16 30 3 34 -16 4z"/>
<path d="M5107 8765 c-4 -8 -2 -17 3 -20 6 -4 10 3 10 14 0 25 -6 27 -13 6z"/>
<path d="M4973 8644 c-51 -7 -127 -20 -170 -30 -43 -9 -97 -20 -120 -25 -89
-18 -341 -92 -463 -135 -186 -68 -454 -212 -645 -349 -275 -195 -532 -448
-742 -730 -60 -80 -183 -283 -238 -390 -116 -230 -176 -391 -244 -660 -57
-224 -78 -369 -83 -570 -3 -83 -1 -100 12 -100 9 0 16 11 17 30 7 83 38 271
58 361 26 109 126 416 173 529 79 189 176 380 268 527 91 145 277 372 434 529
319 319 586 507 955 670 142 63 544 179 683 198 101 14 355 59 375 67 16 6 17
3 11 -22 -3 -16 -17 -38 -30 -49 -29 -25 -30 -41 -6 -54 27 -14 62 -1 113 41
l44 37 -55 57 c-30 31 -69 62 -87 70 -39 17 -137 16 -260 -2z"/>
<path d="M7890 8575 c7 -8 17 -15 22 -15 5 0 3 7 -6 15 -8 8 -18 15 -22 15 -3
0 -1 -7 6 -15z"/>
<path d="M5469 8465 c-41 -85 -52 -116 -53 -160 -1 -49 2 -58 31 -87 18 -17
35 -29 39 -25 4 3 10 44 15 89 4 46 14 106 23 133 21 73 25 155 6 155 -5 0
-33 -47 -61 -105z"/>
<path d="M2895 8469 c-11 -16 -1 -19 13 -3 7 8 8 14 3 14 -5 0 -13 -5 -16 -11z"/>
<path d="M6017 8453 c-3 -5 13 -24 35 -42 33 -28 65 -40 188 -72 148 -39 416
-124 435 -138 5 -4 37 -18 70 -31 71 -28 337 -163 376 -191 15 -10 30 -19 33
-19 4 0 50 -29 104 -64 146 -97 345 -261 457 -377 149 -155 158 -165 357 -416
41 -52 235 -418 280 -528 9 -22 35 -85 58 -140 23 -55 45 -110 50 -123 12 -28
32 -36 66 -28 33 9 32 10 -48 215 -115 294 -289 610 -434 791 -7 8 -41 51 -75
95 -163 208 -443 445 -784 661 -206 132 -533 274 -790 345 -164 45 -368 79
-378 62z"/>
<path d="M4702 8405 c-62 -13 -134 -30 -160 -38 -26 -8 -67 -20 -92 -27 -334
-93 -747 -328 -1040 -591 -382 -343 -656 -748 -850 -1254 -87 -225 -93 -257
-54 -272 25 -9 39 13 89 142 26 66 58 143 70 170 12 28 40 88 60 135 84 189
208 405 318 556 34 47 69 98 77 113 24 45 159 193 260 286 197 180 430 343
660 461 105 54 281 134 295 134 3 0 24 9 48 19 76 35 254 84 480 132 58 12 84
30 72 49 -10 17 -112 10 -233 -15z"/>
<path d="M8206 8326 c7 -19 38 -22 32 -3 -3 6 -12 13 -21 15 -12 2 -15 -1 -11
-12z"/>
<path d="M5720 8275 c0 -3 9 -16 21 -28 39 -41 59 -103 59 -185 -1 -49 -6 -84
-14 -95 -20 -26 -72 -38 -118 -28 -44 10 -54 21 -101 103 -17 32 -36 58 -41
58 -8 0 -1 -73 10 -111 11 -37 -52 -63 -96 -39 -18 9 -35 83 -42 180 -5 66
-23 35 -30 -52 -10 -138 -36 -168 -131 -154 -59 9 -101 48 -117 107 -12 42 -6
106 17 207 3 14 1 22 -9 22 -19 0 -79 -95 -95 -152 -16 -53 -22 -57 -41 -28
-20 33 -74 27 -107 -11 -35 -43 -30 -77 15 -106 83 -53 87 -46 -45 -88 -150
-47 -277 -91 -324 -112 -213 -95 -371 -179 -525 -277 -76 -48 -82 -50 -155
-51 -101 -2 -185 -43 -277 -134 -86 -87 -130 -173 -139 -278 -9 -88 -43 -172
-119 -291 -25 -40 -46 -75 -46 -78 0 -3 -9 -18 -19 -33 -31 -43 -113 -212
-165 -336 -54 -132 -116 -425 -116 -549 0 -83 -8 -92 -97 -105 -145 -21 -441
-42 -825 -57 -120 -5 -168 -11 -168 -19 0 -14 64 -18 543 -36 180 -7 327 -17
327 -21 0 -4 -6 -8 -12 -8 -7 -1 -62 -7 -123 -15 -215 -29 -453 -45 -680 -45
-126 0 -241 -3 -253 -7 -67 -17 42 -23 461 -23 252 0 457 -4 457 -9 0 -10 60
-27 145 -40 33 -5 93 -15 133 -21 41 -7 72 -17 72 -23 1 -18 27 -189 49 -322
24 -138 52 -260 83 -358 25 -79 22 -88 -42 -131 -57 -39 -211 -96 -258 -96
-85 0 -111 -29 -44 -50 70 -23 188 -113 347 -266 104 -100 212 -179 267 -196
25 -7 38 -17 38 -28 0 -25 69 -40 182 -40 117 0 130 7 104 55 -11 19 -34 44
-53 55 -39 23 -42 46 -8 82 34 37 32 58 -2 26 -53 -50 -118 -60 -211 -33 -36
11 -60 26 -82 53 l-31 37 36 3 c26 2 35 8 35 22 0 42 -34 160 -85 296 -30 79
-55 152 -55 163 0 10 -7 38 -16 62 -38 105 -65 224 -89 399 -8 63 -21 151 -27
195 -17 113 -17 590 1 675 42 207 52 252 74 320 43 130 144 340 225 465 140
215 387 488 555 613 243 180 515 328 712 385 325 95 476 117 830 117 253 0
399 -13 579 -49 242 -50 356 -88 571 -192 286 -138 564 -346 707 -529 28 -36
70 -85 94 -110 23 -25 72 -96 109 -158 86 -146 107 -171 139 -165 22 4 26 1
31 -30 4 -20 3 -43 -3 -53 -11 -20 0 -79 21 -102 23 -26 114 -313 142 -446 83
-398 42 -891 -109 -1316 -39 -110 -57 -150 -65 -149 -11 1 -111 132 -111 146
0 7 9 39 21 71 48 133 81 266 115 472 25 146 25 451 1 615 -60 401 -231 788
-479 1082 -360 427 -955 751 -1430 780 l-97 6 -25 -56 c-15 -31 -26 -58 -26
-61 0 -8 -71 -152 -109 -221 -59 -106 -98 -178 -140 -258 -22 -43 -61 -109
-86 -148 -60 -93 -60 -91 17 -229 98 -177 107 -190 166 -252 l44 -46 -43 -29
c-153 -99 -169 -120 -168 -215 1 -90 12 -175 25 -188 10 -10 224 17 329 40 22
5 83 13 135 19 82 9 355 47 582 81 37 5 95 10 130 10 60 0 66 -2 97 -34 45
-46 51 -100 21 -198 -42 -138 -54 -158 -143 -224 -69 -52 -217 -157 -301 -214
-184 -126 -385 -293 -598 -499 -70 -67 -109 -99 -113 -90 -2 8 -39 120 -81
249 -42 129 -88 262 -101 295 -40 98 -202 422 -219 439 -68 68 -27 -152 99
-534 36 -107 84 -256 107 -330 23 -74 51 -159 61 -189 16 -44 17 -56 7 -69
-14 -18 -154 -152 -237 -228 -30 -27 -66 -66 -82 -87 -30 -41 -36 -38 -50 22
-55 225 -51 403 16 850 14 96 24 176 21 178 -2 2 -21 0 -42 -6 -60 -15 -178
-24 -228 -17 -42 7 -46 10 -56 44 -95 352 -140 428 -347 584 -160 120 -182
133 -201 121 -46 -29 -76 -271 -62 -503 10 -157 13 -172 85 -365 26 -71 50
-137 53 -145 3 -8 6 -22 7 -31 1 -10 22 -52 45 -95 79 -142 90 -168 116 -269
20 -78 26 -125 27 -215 1 -104 -2 -124 -30 -205 -40 -116 -69 -166 -91 -158
-28 10 -160 142 -236 238 -112 141 -206 293 -253 410 -111 279 -149 480 -158
840 -6 210 -5 228 9 211 9 -11 16 -26 16 -33 0 -7 11 -41 24 -75 14 -35 41
-108 61 -163 52 -142 122 -270 177 -326 26 -26 90 -71 145 -101 118 -64 137
-72 127 -55 -12 19 -84 108 -130 158 -61 67 -107 172 -169 384 -15 50 -37 124
-51 165 -13 41 -30 100 -38 130 -8 30 -29 106 -45 169 -40 147 -40 178 -1 218
76 77 421 132 880 139 157 2 288 4 291 4 4 0 19 30 35 68 69 168 95 225 235
509 82 166 149 304 149 307 0 6 43 101 91 202 16 34 30 72 31 85 l3 23 -130
-3 c-71 -2 -135 -7 -141 -12 -6 -5 -23 -47 -39 -93 -46 -145 -69 -153 -71 -28
-1 43 -2 83 -3 91 -1 15 -36 12 -176 -15 -377 -74 -847 -340 -1141 -645 -99
-104 -178 -206 -298 -387 -72 -108 -122 -172 -160 -205 -86 -74 -88 -79 -70
-160 16 -68 16 -70 -10 -140 -40 -113 -56 -233 -63 -462 -9 -327 32 -606 110
-760 19 -37 30 -73 28 -94 -4 -68 56 -218 193 -476 102 -193 131 -232 208
-271 58 -29 78 -30 106 -3 25 23 26 22 -38 104 -162 205 -345 583 -396 815
-35 158 -45 221 -60 395 -14 169 -14 203 0 373 15 187 34 283 92 466 35 112
83 224 116 274 34 50 54 56 35 10 -18 -42 -43 -154 -56 -243 -10 -66 -14 -105
-42 -355 -15 -137 -6 -482 15 -620 29 -182 109 -427 195 -595 102 -200 195
-327 383 -522 62 -64 108 -120 108 -131 0 -57 -71 -92 -189 -92 -83 0 -91 -8
-70 -73 18 -55 104 -140 161 -159 l43 -15 8 -64 c8 -64 4 -185 -6 -196 -7 -6
-48 21 -127 85 -53 42 -95 81 -258 234 -74 70 -98 83 -87 49 5 -17 2 -20 -22
-18 -21 1 -27 -2 -24 -13 3 -8 5 -31 6 -50 3 -57 3 -58 46 -82 36 -20 49 -38
94 -129 74 -150 98 -184 189 -275 87 -88 166 -144 202 -144 23 0 44 24 79 93
11 21 27 37 37 37 10 0 64 -18 120 -41 281 -112 480 -169 743 -211 52 -8 182
-13 370 -13 277 1 297 2 440 29 233 44 602 158 743 230 59 30 78 28 41 -4 -97
-83 -483 -214 -792 -268 -140 -24 -175 -26 -432 -27 -285 0 -350 6 -575 51
-112 23 -392 106 -415 124 -5 4 -41 17 -79 29 -76 24 -84 21 -110 -33 -19 -41
-21 -67 -3 -60 7 2 47 -9 88 -26 91 -38 225 -84 302 -105 169 -45 146 -41 442
-87 126 -19 628 -16 735 5 47 9 121 23 165 31 44 9 96 20 115 25 197 52 307
89 374 123 23 12 49 22 58 23 29 3 34 16 13 31 -15 11 -17 18 -9 32 16 25 60
27 90 3 36 -28 60 -26 154 10 91 35 175 93 239 165 52 58 126 169 148 222 8
20 23 55 32 77 10 22 24 56 30 75 27 74 38 85 176 176 77 50 155 99 173 108
18 9 53 37 78 61 l46 44 -3 107 -4 107 45 13 c64 17 133 50 212 100 38 24 70
44 73 44 14 0 75 47 75 58 0 28 -45 11 -200 -74 -14 -7 -68 -32 -120 -54 -101
-42 -110 -41 -110 13 0 18 15 46 44 81 24 29 46 65 50 80 5 21 11 25 29 22 12
-3 88 -10 170 -17 135 -11 171 -10 154 7 -6 7 -303 44 -322 41 -15 -3 -14 2
34 173 39 139 79 324 96 445 9 66 19 130 21 142 3 17 15 24 54 32 28 6 63 11
78 11 46 1 143 25 143 35 0 6 -24 15 -53 22 -44 10 26 12 402 11 487 -1 506
-1 498 7 -6 6 -175 19 -438 34 -295 17 -504 31 -560 38 -86 10 -28 21 115 22
66 1 210 8 320 17 110 9 284 19 387 22 102 4 190 10 194 15 24 23 -36 29 -427
37 -544 12 -720 20 -724 34 -2 6 -9 67 -15 135 -18 215 -90 492 -171 657 -27
56 -49 106 -49 112 0 12 -27 63 -56 108 -16 24 -54 34 -54 14 0 -25 -19 -6
-35 37 -24 61 -78 157 -121 212 -68 88 -30 90 44 2 24 -28 47 -51 53 -51 18 0
8 44 -23 99 -42 75 -324 357 -448 448 -257 188 -546 338 -815 422 -140 43
-280 81 -303 81 -10 0 -33 5 -51 11 -27 10 -31 16 -31 47 0 66 -21 162 -36
162 -9 0 -14 -11 -14 -31 0 -48 -20 -30 -46 41 -17 47 -34 75 -65 103 -36 32
-79 49 -79 32z m218 -750 c350 -83 651 -231 937 -463 89 -71 338 -336 417
-443 79 -106 209 -434 272 -684 71 -279 69 -639 -5 -942 -23 -96 -67 -233 -80
-247 -4 -4 -45 21 -91 56 -103 81 -207 148 -309 199 -43 22 -80 43 -82 47 -6
8 7 69 58 287 61 258 80 337 143 585 113 451 118 482 87 588 -33 110 -115 138
-555 187 -223 26 -262 34 -304 63 -82 56 -363 427 -484 637 -19 33 -46 79 -59
103 -28 48 -30 47 55 27z m-1008 -374 c0 -186 3 -351 6 -367 3 -17 0 -37 -8
-48 -13 -16 -38 -19 -244 -27 -447 -16 -750 -55 -929 -118 -32 -12 -67 -21
-77 -21 -27 0 175 262 297 385 199 202 473 380 715 465 166 59 196 69 218 69
l22 1 0 -339z m-1197 62 c-67 -65 -128 -133 -137 -150 -19 -38 -41 -45 -30
-10 18 57 119 175 207 241 97 72 78 33 -40 -81z m2161 -77 c92 -135 131 -204
122 -213 -10 -10 -271 18 -282 30 -6 7 -18 31 -28 55 l-16 42 56 111 c31 61
57 109 59 107 2 -2 42 -61 89 -132z m-251 -222 c23 -32 52 -61 70 -69 18 -7
93 -18 167 -25 238 -20 278 -40 399 -202 45 -61 70 -81 113 -91 14 -4 133 -16
264 -27 340 -28 388 -39 433 -97 29 -35 29 -33 -63 -433 -28 -122 -80 -331
-96 -390 -5 -19 -16 -66 -25 -105 -8 -38 -24 -104 -35 -145 -10 -41 -31 -122
-45 -180 -25 -97 -53 -204 -122 -465 -42 -157 -69 -203 -153 -253 -66 -39
-228 -79 -257 -63 -17 9 -93 130 -85 135 19 11 162 46 189 46 18 0 39 7 48 16
19 20 68 116 83 164 6 19 29 94 52 165 53 165 66 213 134 475 30 118 62 238
70 265 9 28 16 61 16 75 0 14 13 69 30 122 38 128 64 270 56 312 -8 44 -55
108 -100 135 -30 19 -55 23 -174 28 -139 6 -139 6 -156 34 -33 55 -220 244
-241 243 -11 -1 -112 -25 -225 -54 -137 -35 -227 -53 -272 -54 -65 -1 -68 0
-108 39 -56 55 -57 53 75 90 28 7 79 17 113 21 71 8 81 18 62 65 -17 40 -57
71 -79 60 -23 -13 -270 -53 -286 -47 -7 2 -27 25 -44 50 l-31 45 33 25 c19 14
56 53 82 86 26 33 53 60 59 60 6 -1 28 -26 49 -56z m662 -579 c31 -30 31 -39
1 -53 -26 -12 -292 -62 -556 -106 -86 -15 -171 -31 -190 -36 -19 -6 -41 -10
-47 -10 -26 0 -11 34 35 80 44 44 54 48 142 68 203 44 428 78 533 81 49 1 62
-3 82 -24z m-1875 -645 c52 -52 76 -87 119 -175 62 -126 80 -177 121 -332 75
-282 139 -673 146 -893 5 -161 5 -170 -27 -279 -10 -35 27 -14 132 75 238 203
488 434 904 835 256 247 429 403 560 504 21 17 70 56 109 89 38 32 72 54 74
48 9 -28 -97 -194 -208 -327 -62 -74 -757 -770 -950 -952 -107 -101 -389 -355
-455 -409 -62 -52 -161 -112 -245 -151 -150 -68 -220 -96 -226 -90 -4 4 -2 62
3 129 8 99 7 134 -4 178 -28 106 -28 102 20 172 79 116 117 266 117 464 0 166
-16 233 -115 494 -20 52 -45 118 -55 145 -10 28 -34 88 -55 135 -59 137 -85
219 -100 315 -8 50 -17 110 -21 135 l-7 45 49 -45 c27 -25 78 -74 114 -110z
m-1490 -290 c0 -5 -6 -10 -12 -11 -33 -2 -152 4 -228 10 -77 7 -71 8 78 10
102 0 162 -3 162 -9z m3535 -302 c-11 -56 -116 -360 -142 -410 -13 -27 -29
-48 -36 -48 -24 0 -127 134 -127 165 0 11 289 315 308 323 2 1 1 -13 -3 -30z
m580 -240 c40 -29 132 -93 204 -142 73 -49 147 -103 167 -120 l35 -31 -34 -66
c-30 -59 -69 -116 -207 -305 -25 -34 -50 -70 -56 -80 -11 -18 -16 -15 -67 34
-62 58 -79 67 -187 93 -92 22 -189 25 -216 5 -19 -14 -19 -15 1 -22 11 -4 40
-15 65 -25 25 -9 94 -29 154 -43 123 -30 164 -47 197 -82 12 -13 28 -24 35
-24 21 0 163 140 225 221 61 80 129 202 129 230 0 32 26 27 51 -9 44 -64 29
-133 -57 -268 -42 -65 -143 -170 -203 -210 -23 -14 -41 -31 -41 -35 0 -12 87
-11 133 2 20 5 37 14 37 19 0 6 18 28 40 51 55 57 97 124 117 186 9 29 22 52
27 50 20 -7 18 -74 -4 -117 -22 -43 -106 -134 -150 -162 l-25 -16 30 5 c17 3
53 21 81 39 72 48 91 45 56 -7 -34 -51 -177 -201 -206 -216 -28 -14 -29 -14
-75 30 -25 25 -59 52 -76 60 -35 17 -185 47 -238 47 -23 0 -64 14 -109 38 -67
34 -80 37 -153 37 -68 0 -89 -5 -140 -30 -75 -37 -160 -123 -200 -201 -26 -53
-30 -71 -33 -171 -4 -121 -4 -124 78 -273 40 -73 39 -105 -2 -130 -46 -28
-264 -96 -398 -124 -196 -41 -295 -51 -520 -51 -226 0 -311 9 -505 52 -291 64
-709 218 -728 267 -10 25 -30 412 -23 440 7 27 92 103 103 92 4 -4 2 -33 -5
-64 -7 -32 -12 -110 -12 -174 0 -147 -1 -146 118 -126 138 24 262 75 393 163
45 30 85 55 90 55 4 0 22 -19 41 -42 32 -41 33 -45 33 -134 0 -102 0 -102 54
7 33 66 33 66 15 100 -9 19 -31 51 -47 71 -25 31 -28 40 -17 52 6 9 69 61 139
117 69 56 147 122 173 147 26 25 51 42 55 38 11 -10 21 -252 22 -498 1 -221
15 -333 53 -415 41 -89 59 -77 76 52 29 213 36 393 25 671 -6 151 -8 288 -3
304 4 16 52 81 106 145 82 99 106 121 153 143 63 29 139 39 169 23 28 -15 134
-146 161 -198 11 -23 30 -67 42 -98 11 -31 27 -59 34 -61 6 -3 27 4 46 15 35
20 159 51 203 51 43 0 256 76 282 101 53 49 113 203 155 394 34 157 39 175 50
175 6 0 44 -24 84 -52z m-3925 -412 c0 -5 18 -54 40 -107 22 -54 40 -109 40
-122 0 -31 -42 -61 -73 -51 -27 8 -286 186 -287 196 0 4 19 12 42 19 45 12
159 67 193 93 18 14 21 13 33 -1 6 -9 12 -21 12 -27z m3688 -587 c40 -14 57
-56 57 -146 0 -97 -6 -102 -96 -79 -102 26 -162 4 -214 -79 -33 -51 -47 -56
-63 -20 -39 85 24 234 124 296 60 37 135 48 192 28z m505 -105 c4 -4 -25 -30
-63 -58 -37 -28 -104 -85 -147 -126 -83 -79 -145 -130 -161 -130 -5 0 -12 14
-16 32 -7 35 3 54 69 133 23 28 53 70 67 95 24 45 25 45 89 51 98 9 155 10
162 3z m-553 -229 c10 -12 10 -15 -4 -15 -20 0 -21 -14 -1 -30 8 -7 15 -18 15
-24 0 -6 14 -23 32 -38 l33 -26 -20 -23 c-25 -28 -155 -89 -189 -89 -50 0 -61
77 -23 170 17 42 30 59 57 72 43 22 83 23 100 3z"/>
<path d="M6400 4079 c-60 -12 -198 -79 -243 -119 -41 -35 -49 -70 -18 -70 35
0 33 -19 -12 -113 -74 -151 -84 -248 -38 -353 19 -42 91 -135 91 -117 0 5 -14
58 -30 118 -24 86 -29 121 -24 160 25 196 153 376 310 438 38 14 103 32 144
39 73 13 73 13 35 20 -53 9 -160 8 -215 -3z"/>
<path d="M5891 3649 c-60 -64 -86 -186 -58 -269 l15 -44 4 100 c3 86 8 108 35
164 18 35 30 66 28 68 -1 2 -12 -7 -24 -19z"/>
<path d="M5125 3600 c3 -5 8 -10 11 -10 2 0 4 5 4 10 0 6 -5 10 -11 10 -5 0
-7 -4 -4 -10z"/>
<path d="M5161 3534 c0 -11 3 -14 6 -6 3 7 2 16 -1 19 -3 4 -6 -2 -5 -13z"/>
<path d="M8580 8210 c0 -46 3 -60 15 -60 17 0 35 30 35 57 -1 17 -32 63 -44
63 -3 0 -6 -27 -6 -60z"/>
<path d="M2705 8040 c-10 -11 -14 -20 -8 -20 5 0 18 9 28 20 10 11 14 20 8 20
-5 0 -18 -9 -28 -20z"/>
<path d="M2660 7995 c-7 -8 -9 -15 -6 -15 4 0 14 7 22 15 9 8 11 15 6 15 -5 0
-15 -7 -22 -15z"/>
<path d="M2190 7866 c-44 -53 -124 -168 -182 -261 -188 -302 -374 -814 -448
-1240 -11 -66 -26 -145 -32 -175 -6 -32 -11 -219 -13 -445 -2 -371 -2 -377 5
-130 9 289 19 406 59 660 27 171 105 490 154 630 31 88 103 276 137 360 61
147 183 367 299 539 53 80 66 117 21 62z"/>
<path d="M2418 7752 c-63 -65 -125 -144 -187 -237 -92 -141 -195 -334 -207
-390 l-6 -30 14 25 c8 14 26 43 39 65 14 22 47 81 74 130 56 106 169 277 234
355 25 31 57 71 71 89 14 18 30 38 35 44 68 80 37 56 -67 -51z"/>
<path d="M8910 7682 c0 -4 25 -48 55 -96 75 -120 95 -155 192 -345 45 -90 83
-157 83 -148 0 50 -196 429 -292 564 -22 31 -38 42 -38 25z"/>
<path d="M3232 7440 c-17 -28 -15 -40 7 -40 24 0 43 23 35 44 -8 22 -27 20
-42 -4z"/>
<path d="M7902 7024 c-12 -8 -22 -24 -22 -34 0 -25 40 -38 52 -16 5 9 18 16
30 16 17 0 19 -4 14 -26 -6 -23 -5 -24 14 -14 12 6 20 14 17 18 -2 4 -9 22
-16 40 -10 25 -19 32 -40 32 -14 0 -37 -7 -49 -16z"/>
<path d="M9260 7016 c0 -9 5 -16 10 -16 6 0 10 4 10 9 0 6 -4 13 -10 16 -5 3
-10 -1 -10 -9z"/>
<path d="M7724 6945 c-13 -20 -15 -38 -10 -85 6 -49 4 -61 -8 -66 -23 -9 -20
-27 10 -55 50 -47 164 -22 204 44 29 47 26 86 -12 126 -60 64 -154 82 -184 36z"/>
<path d="M1966 6952 c-3 -5 -19 -60 -36 -123 -17 -63 -35 -127 -40 -144 -15
-49 -82 -297 -90 -335 -74 -334 -112 -559 -123 -723 l-6 -78 32 3 32 3 7 115
c4 63 12 142 17 175 6 33 15 94 22 135 20 133 79 419 121 579 22 86 44 176 49
201 6 25 14 63 19 85 17 77 21 115 11 115 -5 0 -12 -4 -15 -8z"/>
<path d="M9392 6580 c0 -14 2 -19 5 -12 2 6 2 18 0 25 -3 6 -5 1 -5 -13z"/>
<path d="M9401 6528 c-1 -15 8 -73 19 -130 22 -113 36 -233 49 -406 5 -62 11
-116 15 -119 10 -10 7 206 -5 292 -17 130 -40 268 -50 300 -4 17 -13 44 -18
60 l-9 30 -1 -27z"/>
<path d="M8707 6463 c-25 -24 19 -113 56 -113 49 0 65 52 22 72 -14 6 -25 17
-25 24 0 18 -39 31 -53 17z"/>
<path d="M6195 5997 c-39 -24 -126 -82 -195 -128 -194 -132 -238 -134 -263
-10 -20 96 -44 90 -67 -15 -16 -74 -40 -134 -55 -134 -17 0 -24 19 -41 104 -8
38 -18 74 -24 80 -11 11 -85 -10 -101 -31 -15 -18 -4 -100 32 -243 15 -63 33
-146 39 -185 13 -92 24 -130 37 -130 6 0 34 34 61 75 75 116 157 205 288 314
65 55 148 124 184 154 114 95 200 174 200 183 0 18 -27 8 -95 -34z"/>
<path d="M1520 5297 c0 -94 54 -468 91 -627 25 -109 70 -262 81 -275 4 -5 8
-17 8 -27 0 -10 5 -18 11 -18 7 0 9 8 4 23 -4 12 -17 60 -30 107 -13 47 -30
110 -39 140 -17 60 -58 304 -76 445 -6 50 -15 106 -21 126 -5 20 -9 59 -9 87
0 28 -4 54 -10 57 -6 4 -10 -11 -10 -38z"/>
<path d="M9440 5133 c0 -27 -4 -64 -9 -83 -5 -19 -14 -82 -21 -140 -13 -118
-55 -367 -75 -450 -55 -220 -130 -457 -176 -557 -10 -24 -19 -45 -19 -48 0 -5
-41 -98 -77 -173 -13 -29 -23 -57 -21 -62 8 -26 218 454 218 500 0 9 4 20 8
25 5 6 14 28 20 50 6 22 22 78 36 125 33 113 71 294 85 405 7 50 16 119 22
155 13 80 24 300 15 300 -3 0 -6 -21 -6 -47z"/>
<path d="M2336 4774 c-16 -16 -14 -26 10 -54 7 -9 18 -49 24 -90 18 -123 75
-322 145 -505 69 -183 219 -442 374 -649 195 -260 554 -577 871 -771 201 -122
490 -257 680 -316 91 -28 251 -62 258 -54 2 2 -22 11 -54 21 -266 75 -549 196
-803 342 -342 195 -695 495 -907 769 -155 201 -329 504 -398 693 -72 196 -149
467 -161 567 -8 60 -16 70 -39 47z"/>
<path d="M2120 4709 c1 -55 3 -66 38 -224 23 -103 83 -296 142 -460 46 -127
161 -370 201 -426 10 -15 19 -30 19 -33 0 -3 32 -56 72 -118 252 -396 530
-697 873 -944 248 -179 404 -270 655 -382 44 -20 64 -27 240 -90 127 -46 263
-80 480 -123 30 -6 73 -15 95 -19 22 -5 114 -17 205 -26 170 -16 467 -15 645
4 71 8 61 9 -100 10 -432 5 -697 30 -984 94 -120 26 -291 75 -346 97 -11 5
-74 29 -140 54 -258 98 -511 244 -810 467 -91 68 -357 307 -372 334 -4 8 -31
38 -58 68 -145 154 -330 414 -469 662 -84 149 -184 353 -192 394 -4 18 -11 35
-15 38 -5 3 -9 15 -9 27 0 12 -15 67 -34 122 -34 98 -65 216 -91 345 -30 151
-35 174 -40 178 -3 3 -5 -19 -5 -49z"/>
<path d="M8396 4507 c-21 -15 -18 -50 4 -55 27 -5 53 22 46 46 -8 25 -24 28
-50 9z"/>
<path d="M1096 4482 c-9 -14 21 -35 40 -28 8 3 14 12 12 19 -6 15 -44 22 -52
9z"/>
<path d="M8631 4357 c-7 -14 -11 -31 -8 -39 3 -7 6 -4 6 9 1 12 6 23 13 25 6
2 9 10 7 17 -3 8 -10 4 -18 -12z"/>
<path d="M8811 4295 c-1 -12 -5 -25 -10 -30 -4 -6 -16 -32 -26 -60 -10 -27
-23 -63 -30 -80 -8 -16 -22 -52 -33 -80 -36 -91 -145 -317 -202 -420 -75 -134
-226 -357 -283 -417 -6 -7 -37 -42 -67 -78 -139 -165 -335 -362 -456 -460
-221 -179 -420 -311 -649 -430 -60 -32 -123 -65 -140 -74 -16 -9 -34 -16 -38
-16 -5 0 -36 -13 -70 -29 -34 -16 -86 -37 -114 -47 -29 -10 -53 -22 -53 -27 0
-5 8 -6 18 -2 9 4 26 10 37 13 11 2 25 8 30 12 6 4 22 10 38 14 15 4 51 17 80
30 28 12 68 29 87 36 44 17 232 115 282 147 21 12 39 23 42 23 18 0 376 252
475 334 166 139 294 268 442 446 262 315 416 571 549 910 29 74 57 144 61 155
21 52 40 125 36 137 -3 7 -6 4 -6 -7z"/>
<path d="M8601 4284 c0 -11 3 -14 6 -6 3 7 2 16 -1 19 -3 4 -6 -2 -5 -13z"/>
<path d="M8577 4236 c-9 -13 -19 -37 -22 -52 -3 -16 -2 -22 1 -14 4 8 10 17
13 20 10 8 32 62 28 67 -2 2 -11 -7 -20 -21z"/>
<path d="M3422 4234 c-24 -11 -33 -41 -16 -58 35 -36 121 -2 91 37 -13 17 -55
29 -75 21z"/>
<path d="M7900 4138 c-43 -46 -13 -92 44 -67 34 16 43 45 20 70 -22 25 -39 24
-64 -3z"/>
<path d="M8518 4111 c-25 -56 -23 -74 3 -27 11 21 19 45 17 53 -2 8 -11 -4
-20 -26z"/>
<path d="M8449 3978 c-20 -35 -47 -81 -59 -103 -32 -58 -120 -194 -151 -235
-14 -19 -61 -82 -104 -140 -44 -58 -84 -110 -90 -116 -5 -6 -35 -40 -65 -75
-137 -157 -349 -333 -590 -489 -8 -5 -31 -20 -50 -32 -122 -79 -278 -164 -380
-207 -30 -13 -68 -29 -85 -36 -124 -52 -281 -106 -430 -147 -22 -7 -45 -15
-50 -19 -6 -4 -26 -9 -45 -12 l-35 -4 40 -1 c42 -2 57 1 200 41 170 48 440
153 546 213 34 19 63 34 65 34 7 0 129 77 238 149 54 36 114 77 135 90 148 97
518 453 604 581 13 20 55 77 115 155 19 25 115 179 138 222 82 151 94 177 92
185 -2 5 -20 -19 -39 -54z"/>
<path d="M1910 3723 c0 -6 7 -24 16 -39 l16 -29 -7 30 c-7 31 -25 59 -25 38z"/>
<path d="M1950 3622 c0 -7 9 -29 21 -50 19 -34 20 -35 14 -8 -7 32 -35 78 -35
58z"/>
<path d="M2001 3518 c0 -10 8 -32 20 -50 17 -28 19 -29 13 -8 -3 14 -10 27
-14 30 -4 3 -10 14 -13 25 -4 16 -5 16 -6 3z"/>
<path d="M8951 3334 c0 -11 3 -14 6 -6 3 7 2 16 -1 19 -3 4 -6 -2 -5 -13z"/>
<path d="M8862 3204 c-24 -36 -41 -68 -38 -72 3 -3 8 -3 10 -1 15 18 74 108
79 122 14 36 -10 14 -51 -49z"/>
<path d="M8810 3107 c0 -9 -4 -17 -8 -17 -5 0 -15 -12 -23 -27 -23 -47 -23
-49 5 -18 28 32 42 63 32 72 -3 4 -6 -1 -6 -10z"/>
<path d="M2420 2921 c0 -11 6 -26 13 -33 6 -7 48 -58 91 -113 155 -196 523
-541 721 -677 121 -82 171 -116 220 -147 57 -35 66 -41 115 -74 181 -120 588
-300 855 -379 147 -44 352 -88 520 -113 509 -76 986 -56 1465 62 177 43 241
63 390 120 63 25 136 51 162 59 26 8 50 19 53 24 3 6 14 10 23 10 9 0 71 27
136 60 66 33 132 60 148 60 22 0 28 4 26 17 -2 13 19 29 75 60 167 90 431 283
425 311 -2 8 -11 20 -20 25 -14 9 -26 1 -70 -44 -77 -79 -258 -201 -428 -288
-47 -24 -94 -51 -105 -60 -29 -26 -78 -52 -185 -100 -123 -55 -126 -56 -185
-76 -27 -10 -59 -21 -70 -26 -78 -33 -408 -126 -545 -153 -320 -64 -749 -84
-1056 -51 -188 21 -290 34 -344 45 -25 4 -74 14 -110 21 -100 18 -277 64 -360
93 -41 14 -108 37 -149 51 -40 14 -87 32 -105 39 -17 8 -82 38 -145 66 -106
47 -203 96 -326 165 -93 52 -389 247 -485 318 -221 166 -478 417 -678 660 -49
60 -72 82 -72 68z"/>
<path d="M8248 2498 c-250 -234 -271 -255 -261 -261 16 -10 69 35 236 201 143
142 188 192 172 192 -3 0 -69 -60 -147 -132z"/>
<path d="M6260 2350 c-24 -8 -23 -8 8 -9 17 -1 32 4 32 9 0 11 -5 11 -40 0z"/>
<path d="M6505 2016 c-71 -23 -150 -40 -370 -81 -66 -12 -127 -24 -135 -28 -8
-3 -24 -8 -35 -11 -11 -3 18 -2 65 1 47 3 93 9 102 14 9 5 30 9 45 9 34 0 178
31 243 53 25 8 71 20 103 27 31 7 57 17 57 21 0 4 8 10 18 12 14 4 14 5 -3 5
-11 0 -51 -10 -90 -22z"/>
<path d="M7202 1838 c3 -7 13 -15 24 -17 16 -3 17 -1 5 13 -16 19 -34 21 -29
4z"/>
</g>
</svg>
